<?xml version="1.0" standalone="no"?>
<!DOCTYPE svg PUBLIC "-//W3C//DTD SVG 20010904//EN"
 "http://www.w3.org/TR/2001/REC-SVG-20010904/DTD/svg10.dtd">
<svg version="1.0" xmlns="http://www.w3.org/2000/svg"
 width="1512.000000pt" height="1512.000000pt" viewBox="0 0 1512.000000 1512.000000"
 preserveAspectRatio="xMidYMid meet">

<g transform="translate(0.000000,1512.000000) scale(0.100000,-0.100000)"
fill="#000000" stroke="none">
<path d="M6985 14944 c-44 -18 -93 -33 -110 -34 -16 0 -41 -7 -55 -15 -14 -8
-33 -14 -43 -15 -48 -1 -187 -85 -187 -114 0 -6 -9 -27 -19 -47 -11 -20 -23
-54 -26 -75 -4 -22 -13 -59 -20 -84 -21 -70 -84 -438 -101 -593 -7 -57 -8 -59
-48 -76 -66 -28 -197 -69 -246 -76 -25 -4 -57 -14 -72 -21 -15 -8 -40 -14 -55
-14 -15 -1 -39 -7 -53 -15 -14 -8 -38 -14 -55 -15 -16 0 -43 -7 -59 -15 -16
-8 -47 -18 -69 -22 -23 -3 -52 -12 -66 -20 -14 -7 -37 -13 -49 -13 -13 0 -37
-8 -52 -17 -27 -16 -31 -16 -64 2 -20 11 -36 25 -36 32 0 7 -4 13 -9 13 -5 0
-7 -9 -4 -20 3 -11 11 -20 18 -20 8 0 17 -9 20 -20 3 -11 17 -23 30 -26 25 -6
108 6 160 24 29 10 124 38 235 68 30 9 75 22 100 29 25 7 68 17 95 21 28 3 55
10 60 15 6 4 39 12 73 18 34 5 67 13 74 17 11 7 75 20 243 49 44 7 93 18 108
24 16 6 43 11 60 11 79 1 118 92 148 345 5 44 14 94 19 110 5 17 12 62 15 100
4 39 13 95 21 126 8 31 14 77 14 102 0 24 9 73 20 107 11 34 20 69 20 76 0 8
4 14 9 14 5 0 12 8 15 18 3 9 20 25 37 35 27 15 64 17 347 17 186 0 387 -6
487 -14 94 -8 240 -17 325 -21 85 -3 157 -8 159 -11 19 -18 -63 -24 -369 -24
-408 -1 -676 -12 -693 -29 -6 -6 -37 -11 -68 -11 -56 0 -87 -14 -52 -23 13 -3
14 -5 3 -6 -11 -1 -16 -14 -18 -46 -1 -42 0 -45 26 -47 15 -1 40 -1 55 0 22 2
28 -2 25 -14 -2 -11 -22 -22 -56 -30 -83 -22 -89 -27 -59 -55 30 -29 74 -65
102 -85 19 -13 19 -15 3 -28 -10 -7 -18 -20 -18 -28 0 -9 -9 -18 -21 -21 -30
-8 -19 -27 26 -45 22 -9 43 -20 47 -26 11 -16 -30 -46 -63 -46 -15 0 -31 -4
-34 -10 -9 -15 15 -52 30 -46 16 6 45 -19 45 -39 0 -33 -12 -44 -41 -38 -23 4
-29 2 -29 -12 0 -9 9 -19 20 -22 11 -3 20 -12 20 -20 0 -11 5 -13 18 -8 9 4
25 10 35 12 25 8 22 -23 -7 -52 -27 -27 -18 -45 24 -45 32 0 56 -18 63 -48 4
-19 2 -22 -13 -17 -32 10 -59 -11 -57 -45 1 -20 7 -30 18 -30 16 0 29 -19 29
-41 0 -5 -7 -9 -15 -9 -8 0 -15 -9 -15 -20 0 -12 -12 -26 -30 -35 l-30 -16 22
-29 c12 -17 25 -30 30 -30 19 0 6 -37 -19 -52 l-28 -17 28 -10 c15 -6 27 -15
27 -21 0 -6 7 -18 15 -26 8 -9 15 -33 15 -55 0 -28 -4 -39 -15 -39 -9 0 -15
-9 -15 -23 0 -13 -6 -29 -12 -36 -10 -11 -10 -14 0 -18 6 -3 12 -10 12 -17 0
-7 18 -21 40 -31 40 -18 52 -35 25 -35 -12 0 -14 -16 -11 -94 3 -52 10 -104
18 -116 10 -18 10 -24 1 -27 -31 -11 -4 -123 29 -123 9 0 24 -3 33 -6 14 -6
10 -10 -15 -21 -32 -13 -32 -14 -15 -32 18 -21 13 -41 -11 -41 -8 0 -14 -4
-14 -10 0 -5 18 -10 40 -10 22 0 108 -7 192 -15 430 -42 530 -55 502 -67 -13
-4 -5 -6 21 -5 22 1 40 -1 40 -6 0 -4 -110 -8 -245 -8 -250 -1 -455 -11 -615
-30 -49 -6 -144 -16 -210 -24 -66 -7 -133 -18 -148 -24 -16 -6 -47 -11 -70
-11 -23 0 -58 -5 -77 -10 -19 -6 -66 -17 -105 -25 -114 -23 -209 -45 -225 -52
-8 -4 -37 -12 -65 -19 -105 -26 -141 -37 -170 -49 -16 -8 -46 -17 -65 -21 -19
-3 -39 -10 -45 -14 -5 -4 -26 -13 -45 -18 -52 -16 -121 -41 -157 -57 -17 -8
-36 -15 -41 -15 -6 0 -23 -6 -39 -14 -57 -29 -120 -56 -129 -56 -8 0 -188 -84
-244 -115 -14 -7 -47 -25 -75 -40 -27 -14 -54 -30 -59 -36 -6 -5 -16 -9 -23
-9 -7 0 -35 -15 -61 -32 -26 -18 -67 -44 -92 -57 -25 -13 -51 -29 -59 -35 -17
-13 -50 -33 -78 -45 -13 -6 -23 -14 -23 -19 0 -4 -12 -13 -27 -19 -16 -7 -55
-32 -88 -57 -33 -24 -63 -45 -67 -45 -3 -1 -17 -10 -30 -21 -12 -11 -63 -49
-113 -85 -144 -104 -325 -256 -445 -373 -37 -37 -94 -92 -127 -123 -91 -87
-244 -249 -288 -304 -21 -28 -57 -70 -80 -96 -82 -93 -107 -123 -141 -175 -20
-30 -40 -54 -45 -54 -5 0 -9 -7 -9 -15 0 -7 -6 -18 -13 -22 -7 -4 -18 -19 -25
-33 -6 -14 -37 -59 -67 -100 -30 -41 -60 -86 -66 -100 -6 -13 -14 -27 -18 -30
-4 -3 -29 -42 -55 -87 -26 -46 -52 -85 -56 -88 -5 -3 -11 -19 -15 -35 -4 -17
-10 -30 -15 -30 -4 0 -13 -12 -19 -27 -6 -16 -20 -41 -31 -58 -11 -16 -23 -37
-26 -45 -4 -8 -25 -53 -47 -100 -22 -47 -53 -114 -69 -150 -16 -36 -36 -78
-44 -93 -8 -16 -14 -34 -14 -40 -1 -7 -9 -30 -20 -52 -11 -22 -19 -47 -20 -56
0 -8 -7 -24 -15 -35 -8 -10 -15 -26 -15 -34 0 -8 -9 -33 -20 -55 -11 -22 -19
-50 -20 -62 0 -12 -4 -23 -10 -25 -5 -1 -14 -28 -20 -57 -6 -30 -14 -57 -19
-61 -5 -3 -12 -23 -16 -44 -5 -22 -14 -51 -21 -65 -8 -14 -14 -36 -14 -48 0
-13 -7 -40 -15 -60 -8 -21 -19 -58 -24 -83 -16 -74 -31 -141 -46 -210 -8 -36
-19 -96 -25 -135 -6 -38 -14 -88 -20 -110 -5 -22 -10 -59 -10 -82 0 -24 -8
-85 -17 -135 -26 -133 -26 -929 -1 -1088 9 -58 19 -136 23 -175 3 -38 10 -86
15 -105 5 -19 14 -66 19 -105 15 -102 30 -183 46 -240 20 -73 45 -174 54 -220
4 -22 12 -49 18 -60 6 -11 13 -40 17 -65 4 -24 12 -50 18 -57 6 -7 14 -30 18
-51 5 -20 20 -68 35 -107 15 -38 29 -81 32 -95 3 -14 12 -34 19 -45 8 -11 14
-25 14 -33 0 -12 8 -33 56 -139 8 -18 20 -48 28 -65 27 -66 126 -273 146 -308
5 -8 20 -40 35 -70 14 -30 34 -68 45 -85 10 -16 31 -55 47 -85 15 -30 30 -57
33 -60 3 -3 18 -25 32 -50 27 -47 91 -147 105 -165 4 -5 21 -30 38 -55 16 -25
33 -47 36 -50 4 -3 17 -21 30 -40 48 -70 192 -257 208 -270 4 -3 26 -30 49
-60 23 -30 62 -77 85 -104 50 -58 263 -276 269 -276 2 0 29 -24 60 -53 30 -28
91 -85 134 -125 43 -39 107 -98 141 -130 35 -31 63 -63 63 -70 0 -6 5 -11 11
-10 6 2 14 -3 16 -11 8 -20 -37 -4 -68 25 -14 13 -29 24 -33 24 -8 0 -120 83
-147 109 -9 9 -29 25 -45 36 -88 64 -217 176 -268 234 -49 56 -169 170 -176
166 -4 -2 -13 7 -21 22 -18 34 -43 42 -96 30 -37 -7 -48 -6 -63 8 -19 17 -20
17 -29 -6 -7 -18 -5 -27 6 -36 16 -13 11 -41 -15 -82 -13 -19 -17 -20 -21 -8
-5 14 -8 13 -26 -2 -23 -19 -43 -48 -51 -73 -4 -10 -16 -18 -28 -18 -12 0 -27
-5 -33 -11 -8 -8 -16 -8 -30 0 -10 6 -12 11 -5 11 6 0 12 5 12 11 0 6 -17 9
-42 7 l-42 -3 3 -61 c2 -48 -1 -63 -13 -67 -9 -4 -16 -13 -16 -21 0 -20 -42
-44 -48 -27 -7 20 -38 12 -52 -15 -10 -18 -11 -30 -3 -42 16 -27 -2 -62 -31
-62 -28 0 -43 -32 -32 -68 6 -17 0 -21 -41 -27 -26 -4 -51 -9 -54 -11 -9 -5
19 -108 31 -112 6 -2 10 -8 10 -14 0 -11 27 -47 76 -100 19 -20 34 -41 34 -45
1 -9 36 -53 43 -53 6 0 134 -132 243 -251 17 -19 18 -29 1 -29 -16 0 -72 47
-160 133 -37 37 -71 67 -74 67 -6 0 -23 17 -245 234 -80 80 -160 152 -177 161
-29 14 -34 14 -75 -5 -25 -11 -49 -20 -54 -20 -9 0 -65 -24 -92 -40 -8 -5 -37
-20 -65 -33 -46 -22 -77 -36 -175 -80 -51 -22 -184 -84 -267 -123 -39 -19 -76
-34 -83 -34 -6 0 -21 -6 -33 -14 -12 -8 -45 -19 -73 -26 -44 -11 -55 -11 -87
5 -20 9 -39 24 -42 33 -3 10 -18 31 -35 49 -16 18 -30 34 -30 38 0 3 -16 28
-35 55 -19 27 -35 52 -35 55 0 2 -25 41 -55 85 -30 44 -55 85 -55 90 0 6 -4
10 -9 10 -5 0 -22 21 -37 48 -15 26 -30 49 -34 52 -4 3 -29 43 -56 88 -27 46
-57 96 -66 110 -10 15 -23 38 -30 52 -7 14 -15 27 -19 30 -3 3 -19 30 -35 60
-16 30 -32 57 -36 60 -4 3 -12 17 -18 30 -5 14 -19 39 -30 55 -11 17 -27 44
-35 60 -9 17 -32 57 -51 90 -19 33 -42 74 -50 90 -8 17 -28 53 -44 80 -35 61
-36 79 -9 141 29 65 51 92 96 116 20 11 57 36 82 54 24 19 48 34 54 34 5 0 15
6 21 14 11 13 160 122 238 175 21 13 38 28 38 33 0 4 7 8 15 8 7 0 18 6 22 13
4 7 38 34 75 60 36 26 87 68 112 93 41 40 46 50 46 90 0 40 -25 135 -50 189
-5 11 -13 36 -19 55 -5 19 -19 60 -31 90 -12 30 -28 78 -35 105 -30 110 -44
154 -53 172 -5 10 -13 42 -17 70 -4 29 -11 55 -16 59 -5 3 -9 17 -9 32 0 15
-7 52 -15 82 -8 30 -20 80 -25 110 -48 260 -65 325 -90 350 -26 26 -175 55
-329 65 -63 4 -125 11 -139 16 -13 5 -69 12 -125 15 -56 3 -132 12 -169 20
-37 8 -87 14 -112 14 -45 0 -132 36 -155 64 -6 7 -19 80 -27 162 -25 231 -10
1263 21 1484 2 14 4 28 4 32 3 22 58 40 143 48 51 4 122 13 158 19 36 5 112
15 170 22 58 6 155 17 215 25 61 8 145 19 187 24 140 16 168 34 196 129 19 62
25 90 57 271 24 137 81 353 121 463 8 20 14 47 14 60 0 12 6 34 14 48 7 14 16
43 20 65 5 21 11 44 16 49 4 6 20 51 35 100 15 50 31 103 36 118 19 62 -35
125 -215 252 -36 25 -341 259 -421 322 -178 142 -192 161 -176 247 9 47 74
184 178 376 23 41 49 91 59 110 11 19 22 36 27 38 4 2 7 8 7 14 0 10 79 150
90 158 3 3 12 20 19 38 8 17 16 32 20 32 4 0 12 12 19 28 7 15 27 52 45 83 47
82 110 191 124 214 7 11 17 30 23 43 5 13 26 44 45 69 19 25 35 50 35 56 0 11
62 90 100 127 17 16 41 27 75 31 l50 6 -62 2 c-35 0 -63 -3 -63 -8 0 -5 -14
-12 -31 -16 -17 -4 -42 -13 -57 -21 -15 -8 -37 -14 -49 -14 -27 0 -130 -34
-190 -62 -33 -15 -113 -91 -151 -143 -4 -6 -19 -26 -33 -45 -14 -19 -46 -68
-70 -108 -24 -40 -52 -85 -62 -100 -9 -15 -24 -40 -32 -57 -9 -16 -24 -43 -35
-60 -11 -16 -27 -44 -37 -62 -10 -17 -43 -74 -74 -125 -30 -51 -58 -100 -62
-108 -4 -8 -17 -32 -30 -52 -173 -287 -262 -455 -289 -548 -29 -102 -14 -144
93 -252 38 -39 69 -77 69 -84 0 -8 9 -14 20 -14 12 0 25 -13 36 -35 9 -19 24
-35 33 -35 9 -1 34 -12 56 -25 22 -14 50 -30 62 -36 13 -7 25 -20 28 -30 4
-11 32 -36 63 -56 31 -21 67 -48 79 -61 15 -16 23 -19 26 -10 4 9 6 8 6 -3 1
-9 10 -19 21 -22 11 -3 27 -20 35 -39 18 -40 35 -62 55 -70 18 -7 52 -160 44
-203 -15 -90 -47 -202 -139 -487 -19 -58 -35 -118 -35 -133 0 -14 -5 -35 -11
-46 -9 -18 -19 -63 -51 -231 -14 -73 -34 -94 -105 -108 -32 -6 -67 -15 -77
-21 -10 -6 -55 -15 -100 -19 -45 -5 -95 -13 -111 -18 -17 -5 -71 -12 -120 -16
-83 -7 -111 -13 -205 -45 -19 -7 -63 -16 -97 -21 -35 -4 -82 -18 -106 -29 -44
-21 -107 -88 -107 -113 0 -8 -4 -18 -9 -23 -70 -70 -94 -1083 -36 -1442 23
-141 41 -195 73 -227 36 -34 158 -76 220 -76 26 0 83 -7 127 -15 44 -8 127
-24 185 -35 58 -11 132 -23 165 -26 33 -4 74 -16 90 -26 17 -10 44 -18 61 -18
31 0 74 -34 74 -59 0 -7 13 -32 28 -55 17 -24 29 -57 30 -76 0 -19 5 -43 10
-55 5 -11 24 -66 42 -123 17 -56 36 -105 41 -108 5 -3 9 -21 9 -39 0 -24 6
-38 20 -45 13 -7 20 -21 20 -38 0 -15 9 -45 19 -65 11 -21 22 -56 26 -78 4
-23 13 -53 21 -67 8 -15 14 -39 14 -53 0 -15 6 -32 14 -38 8 -7 18 -31 21 -54
4 -23 10 -46 13 -52 10 -16 42 -135 53 -198 10 -54 9 -61 -10 -78 -12 -11 -21
-23 -21 -28 0 -4 -32 -41 -71 -82 -130 -136 -164 -181 -163 -214 1 -16 -3 -36
-8 -42 -6 -7 -8 -13 -4 -13 3 0 -3 -17 -14 -37 -11 -21 -20 -48 -20 -60 0 -32
-34 -48 -62 -28 -13 8 -40 15 -61 15 -24 0 -40 5 -43 15 -4 8 -10 12 -15 9 -5
-3 -7 -10 -4 -15 4 -5 -4 -9 -16 -9 -23 0 -82 -33 -110 -61 -9 -9 -20 -18 -25
-20 -5 -2 -20 -20 -34 -39 -22 -31 -25 -45 -24 -118 1 -48 6 -88 13 -95 6 -6
11 -19 11 -28 0 -17 50 -133 95 -219 13 -25 47 -90 75 -145 28 -55 60 -113 70
-130 11 -16 22 -37 26 -45 3 -8 10 -24 17 -35 6 -11 16 -29 22 -40 6 -11 39
-63 73 -115 34 -52 62 -102 62 -111 0 -9 6 -19 12 -22 7 -3 22 -22 33 -43 10
-22 44 -75 74 -119 30 -44 64 -94 75 -110 66 -96 136 -156 204 -174 30 -8 65
-9 124 -1 46 5 117 10 158 11 67 1 159 22 215 49 11 5 65 28 120 50 55 23 123
53 152 66 28 13 57 24 63 24 6 0 30 9 52 20 23 11 52 20 64 20 13 0 26 5 29
10 14 22 43 8 85 -42 25 -28 77 -84 115 -124 39 -41 84 -92 100 -114 17 -22
45 -49 63 -61 17 -11 32 -24 32 -28 0 -16 75 -91 92 -91 10 0 18 -7 18 -15 0
-8 5 -15 10 -15 6 0 33 -22 61 -50 28 -27 52 -50 54 -50 2 0 18 -15 37 -32 19
-18 43 -40 53 -49 31 -26 98 -102 111 -126 8 -14 9 -25 3 -28 -5 -4 -6 -23 -3
-43 6 -37 -19 -147 -37 -166 -5 -6 -9 -19 -9 -30 0 -11 -10 -45 -21 -76 -12
-30 -27 -71 -34 -90 -7 -19 -23 -60 -35 -90 -72 -175 -82 -213 -87 -327 -6
-107 -5 -113 20 -156 26 -44 105 -117 139 -130 10 -4 18 -11 18 -17 0 -5 5
-10 11 -10 6 0 39 -20 73 -44 58 -41 146 -95 204 -125 15 -7 36 -21 47 -31 11
-10 50 -33 87 -53 37 -19 79 -44 95 -54 15 -11 45 -26 65 -32 20 -7 42 -19 48
-27 7 -7 19 -14 28 -14 8 0 23 -6 31 -14 26 -23 401 -209 466 -231 77 -26 180
-23 233 5 30 16 56 20 143 20 100 0 108 1 145 28 37 27 94 92 94 108 0 4 7 14
15 23 25 27 78 94 120 155 22 32 70 98 108 147 37 49 67 92 67 94 0 3 7 13 15
23 9 9 43 52 76 95 l60 79 116 -3 115 -3 37 40 c20 22 43 51 51 63 8 13 32 46
53 72 20 27 37 53 37 58 0 5 3 11 8 13 10 4 92 127 92 137 0 5 7 11 15 15 8 3
15 12 15 20 0 9 13 35 29 58 89 134 111 170 111 177 0 5 3 11 8 13 4 2 15 19
25 38 9 19 26 49 37 65 11 17 24 39 30 50 6 11 21 38 34 60 12 22 42 76 66
120 24 44 75 124 114 178 80 110 99 138 123 184 9 18 20 33 25 33 4 0 8 6 8
13 0 8 9 22 20 32 11 10 20 23 20 28 0 5 15 28 34 51 18 23 36 51 40 64 4 12
12 22 17 22 5 0 9 4 9 10 0 9 69 123 90 147 5 7 10 16 10 20 0 5 16 32 35 62
19 29 35 57 35 61 0 5 6 15 13 22 7 7 35 51 62 96 28 46 58 96 67 110 10 15
22 36 28 47 6 11 28 47 50 80 22 33 44 71 50 84 6 13 24 44 40 68 17 24 30 47
30 51 0 4 16 31 35 61 19 29 35 54 35 56 0 2 13 23 29 47 15 24 39 63 52 88
13 25 39 66 57 92 17 26 32 51 32 56 0 6 7 12 15 16 8 3 15 12 15 19 0 8 9 24
20 37 11 13 20 29 20 37 0 7 4 13 9 13 5 0 14 14 21 30 7 17 16 30 21 30 5 0
9 4 9 10 0 8 35 66 57 95 5 6 14 21 21 35 7 14 21 39 32 55 11 17 23 37 27 45
8 17 45 73 54 80 7 6 34 54 51 92 7 16 15 28 19 28 4 0 19 25 34 55 16 30 32
55 36 55 4 0 12 12 18 28 20 47 42 82 52 82 5 0 9 5 9 12 0 13 51 91 63 96 4
2 7 10 7 17 0 8 6 20 13 27 15 15 72 110 89 151 7 15 16 27 20 27 4 0 14 15
23 33 16 36 34 65 52 84 6 7 15 22 18 33 3 11 11 20 16 20 5 0 9 8 9 18 0 11
9 27 20 37 11 10 20 24 20 32 0 7 9 22 20 33 11 11 20 27 20 35 0 8 5 15 10
15 6 0 15 10 20 23 6 12 19 36 30 52 11 17 25 40 31 53 7 12 16 22 20 22 4 0
10 13 14 29 3 16 13 32 21 35 8 3 14 12 14 19 0 8 9 22 20 32 11 10 20 22 20
27 0 5 16 30 35 55 19 25 35 52 35 59 0 8 4 14 8 14 4 0 13 12 20 28 7 15 23
45 37 67 14 22 28 47 32 55 3 8 9 17 12 20 11 10 61 86 61 93 0 10 43 71 53
75 4 2 7 10 7 17 0 8 6 20 13 27 23 25 93 133 116 181 12 26 27 47 31 47 5 0
12 10 16 22 3 12 11 26 15 32 5 6 44 67 86 136 41 69 91 148 109 176 19 28 34
55 34 61 0 6 3 13 8 15 10 4 62 86 62 98 0 5 3 10 8 10 4 0 21 23 37 51 17 28
40 68 53 88 13 20 25 44 29 54 3 9 9 17 13 17 4 0 13 13 20 30 7 16 16 30 21
30 5 0 9 6 9 13 0 6 18 39 40 72 22 33 40 65 40 72 0 7 4 13 10 13 5 0 16 15
25 33 17 36 37 70 47 77 4 3 12 17 18 30 12 28 22 44 65 110 28 43 50 81 74
125 6 11 20 34 31 50 11 17 25 41 32 55 7 14 16 27 20 30 4 3 19 28 34 55 14
28 29 52 33 55 4 3 29 41 55 85 26 44 72 114 102 155 30 41 60 87 67 103 6 15
14 27 18 27 4 0 20 20 36 45 15 25 31 45 35 45 4 0 15 16 24 35 28 59 46 42
64 -60 14 -78 29 -117 42 -109 4 3 8 -15 8 -40 0 -31 11 -69 34 -118 19 -40
38 -95 41 -123 4 -27 13 -60 21 -72 8 -12 14 -37 14 -55 0 -18 7 -46 15 -62 8
-15 15 -51 15 -79 0 -28 4 -76 10 -106 5 -31 19 -126 30 -211 11 -85 25 -180
32 -210 24 -121 11 -645 -22 -825 -4 -27 -18 -106 -30 -175 -23 -131 -29 -157
-56 -255 -40 -146 -91 -293 -140 -402 -8 -18 -20 -48 -28 -65 -42 -95 -200
-413 -208 -416 -4 -2 -8 -7 -8 -12 0 -16 -123 -208 -178 -278 -18 -22 -32 -44
-32 -48 0 -5 -17 -28 -38 -50 -20 -23 -57 -66 -82 -95 -87 -105 -304 -324
-380 -386 -20 -15 -44 -35 -53 -43 -30 -25 -41 -34 -82 -64 -22 -17 -42 -32
-45 -35 -3 -4 -12 -10 -22 -16 -19 -12 -240 -158 -280 -186 -15 -11 -32 -19
-37 -19 -5 0 -16 -6 -23 -12 -16 -15 -281 -148 -355 -177 -28 -12 -59 -21 -67
-21 -9 0 -16 -4 -16 -10 0 -5 -17 -12 -37 -16 -21 -4 -49 -12 -63 -19 -40 -19
-122 -46 -165 -54 -23 -4 -47 -11 -54 -15 -15 -10 -114 -33 -196 -47 -33 -5
-82 -14 -110 -20 -58 -12 -314 -28 -457 -29 l-97 0 -38 -38 c-41 -42 -97 -118
-126 -170 -10 -18 -32 -54 -50 -80 -18 -26 -41 -64 -52 -85 -11 -21 -28 -45
-37 -54 -10 -9 -18 -21 -18 -26 0 -6 -23 -44 -52 -86 -29 -42 -85 -125 -124
-186 -40 -60 -78 -115 -83 -122 -6 -7 -11 -16 -11 -21 0 -5 -12 -27 -28 -48
-73 -104 -106 -169 -110 -219 -4 -47 -2 -54 23 -73 15 -12 36 -22 46 -22 9 0
19 -4 21 -10 11 -32 939 -49 1193 -22 429 45 628 81 960 174 158 44 181 51
210 63 17 8 41 16 55 20 14 4 39 12 55 19 17 8 55 21 85 30 74 23 161 57 185
73 11 7 26 13 34 13 14 0 125 50 202 91 20 10 44 19 53 19 9 0 16 4 16 9 0 5
9 13 20 16 11 4 44 22 73 41 28 19 58 32 65 29 7 -2 15 2 18 10 7 17 54 21 54
5 0 -5 -11 -10 -25 -10 -14 0 -24 -5 -23 -12 2 -6 -7 -17 -19 -23 -13 -7 -31
-19 -41 -28 -10 -10 -24 -17 -30 -17 -7 0 -12 -4 -12 -10 0 -5 -15 -17 -32
-25 -18 -8 -46 -24 -63 -35 -16 -11 -39 -25 -50 -31 -60 -32 -86 -47 -98 -57
-23 -19 -308 -158 -427 -209 -19 -8 -48 -21 -65 -29 -16 -7 -73 -30 -125 -49
-52 -20 -108 -42 -125 -50 -16 -7 -61 -23 -100 -36 -38 -12 -85 -28 -103 -35
-18 -8 -43 -14 -55 -14 -12 0 -35 -7 -50 -15 -15 -8 -49 -19 -75 -24 -106 -21
-196 -42 -206 -49 -11 -6 -109 -24 -262 -46 -49 -8 -117 -20 -150 -27 -94 -21
-796 -19 -889 3 -145 34 -299 51 -397 45 -112 -7 -134 -15 -180 -59 -46 -43
-148 -178 -148 -194 0 -3 -7 -12 -15 -20 -8 -9 -15 -24 -15 -35 0 -10 -4 -19
-9 -19 -8 0 -40 -46 -63 -90 -5 -8 -17 -28 -28 -45 -11 -16 -26 -42 -35 -58
-9 -15 -20 -27 -25 -27 -6 0 -10 -9 -10 -20 0 -11 -7 -23 -15 -26 -8 -4 -15
-12 -15 -19 0 -6 -9 -20 -20 -30 -11 -10 -20 -24 -20 -32 0 -7 -16 -36 -35
-63 -19 -27 -35 -54 -35 -59 0 -5 -7 -14 -15 -21 -8 -7 -15 -19 -15 -27 0 -7
-10 -27 -22 -44 -24 -32 -93 -155 -128 -227 -26 -53 -17 -72 42 -96 24 -10 57
-24 74 -31 17 -7 52 -16 77 -20 26 -4 52 -13 58 -21 6 -8 26 -14 44 -14 18 0
44 -9 58 -20 14 -11 35 -20 48 -20 27 0 89 -45 89 -66 0 -7 5 -14 10 -14 6 0
18 -17 28 -37 9 -21 20 -40 23 -43 3 -3 11 -23 18 -45 44 -147 56 -207 72
-355 20 -178 75 -336 143 -408 47 -51 85 -70 181 -93 85 -20 115 -21 604 -20
494 0 762 10 799 30 9 5 58 12 107 16 50 4 121 13 158 21 38 8 84 14 104 14
51 0 143 69 143 109 0 9 5 22 11 28 5 5 14 54 19 108 6 54 14 103 19 109 4 6
11 62 15 124 4 61 11 124 16 140 5 15 14 81 19 147 6 66 15 134 20 150 6 17
14 50 18 75 9 51 49 85 112 96 20 3 59 11 86 19 28 7 70 18 95 25 25 6 70 18
100 25 30 8 72 19 94 25 21 6 47 13 58 15 10 2 33 8 51 14 18 5 57 16 87 24
30 8 80 22 111 31 31 9 67 16 81 16 25 0 68 -37 68 -58 0 -7 8 -12 18 -12 10
0 27 -18 42 -45 14 -25 30 -45 37 -45 7 0 13 -6 13 -12 0 -14 46 -68 148 -173
38 -38 86 -95 107 -125 21 -30 47 -61 59 -69 11 -8 27 -22 36 -31 25 -25 76
-42 122 -41 185 4 385 15 397 21 10 5 1 14 -32 28 -64 28 -123 78 -138 116
-12 28 -76 134 -89 146 -4 3 -25 34 -47 70 -62 96 -103 156 -146 208 -20 26
-42 52 -47 59 -6 7 -10 15 -10 19 0 6 -34 51 -63 84 -8 8 -24 30 -37 48 -18
24 -31 32 -54 32 -28 0 -145 -36 -171 -52 -6 -3 -27 -9 -47 -13 -21 -4 -42
-13 -49 -21 -13 -16 -109 -20 -109 -4 0 11 52 40 72 40 7 0 45 15 83 34 39 18
81 37 95 41 14 3 44 15 67 26 51 23 92 24 107 5 6 -8 31 -17 56 -21 38 -5 47
-3 57 14 10 16 10 23 -2 35 -8 8 -20 16 -27 18 -10 4 -10 10 0 32 14 31 32 30
48 -3 6 -12 19 -28 29 -35 24 -17 15 -50 -15 -54 -25 -4 -49 -28 -50 -50 0
-16 45 -62 61 -62 7 0 9 10 7 25 -6 29 14 45 43 38 13 -4 19 0 19 11 0 9 -4
16 -10 16 -5 0 -10 9 -10 20 0 11 7 20 15 20 8 0 15 -9 15 -20 0 -17 5 -20 33
-17 18 2 43 10 57 17 25 13 24 14 -31 32 -68 23 -125 67 -116 91 3 9 15 17 25
17 20 0 51 28 51 45 0 5 4 11 10 13 6 2 11 -3 11 -12 0 -9 5 -16 10 -16 6 0
10 20 10 45 0 25 -4 45 -10 45 -5 0 -10 9 -10 19 0 11 -5 21 -12 23 -7 3 -11
23 -10 53 2 38 -2 54 -20 73 l-23 24 24 19 c31 26 35 25 51 -16 16 -40 44 -46
55 -13 7 20 9 18 12 -14 5 -41 13 -47 33 -23 7 8 9 15 5 15 -4 0 -2 7 6 16 10
13 10 17 -2 25 -8 5 -20 9 -26 9 -7 0 -13 7 -13 15 0 11 -12 15 -44 15 l-43 0
6 32 c8 40 34 57 61 40 12 -7 20 -8 20 -2 0 5 -5 10 -10 10 -7 0 -7 6 0 19 14
28 14 29 -28 36 -37 6 -39 8 -40 46 -2 36 0 39 21 34 15 -4 28 -1 36 9 12 14
9 16 -23 16 -29 0 -36 4 -36 19 0 14 5 18 18 14 12 -3 25 4 36 22 9 14 22 23
28 19 6 -4 8 -3 5 3 -4 6 2 13 13 16 26 7 26 37 1 37 -19 0 -45 -20 -53 -38
-1 -5 -14 -12 -28 -16 -17 -5 -21 -4 -11 2 11 8 10 11 -7 16 -23 8 -84 63 -73
68 8 4 51 64 51 72 0 3 -9 6 -19 6 -11 0 -22 6 -24 13 -4 9 -8 8 -16 -3 -16
-23 -22 -7 -9 22 13 26 56 48 99 48 22 1 23 2 7 14 -10 7 -18 21 -18 30 0 10
-8 16 -25 16 -21 0 -24 3 -19 28 4 22 0 29 -22 39 -15 7 -31 10 -35 7 -9 -5
-13 17 -10 44 3 17 -12 15 -35 -7 -11 -10 -37 -21 -57 -25 -20 -4 -37 -11 -37
-16 0 -6 -5 -10 -11 -10 -10 0 -90 -33 -121 -50 -10 -6 -23 -10 -30 -10 -7 0
-35 -12 -63 -25 -27 -14 -55 -25 -62 -25 -6 0 -24 -6 -40 -14 -79 -41 -458
-177 -508 -184 -22 -3 -43 -9 -46 -13 -3 -5 -32 -14 -65 -20 -32 -6 -63 -15
-69 -20 -10 -10 -56 -12 -80 -3 -11 5 1 14 42 30 32 13 65 24 73 24 8 1 33 9
55 20 22 11 48 19 58 20 9 0 34 9 54 20 21 11 47 20 58 20 11 0 29 7 39 15 11
8 29 15 40 15 12 0 35 9 51 20 17 11 38 20 48 20 9 0 25 4 35 9 9 5 37 18 62
29 25 11 85 39 133 61 49 23 92 41 98 41 5 0 9 4 9 9 0 5 10 13 23 17 12 3 29
12 37 19 8 8 27 17 43 20 15 4 27 11 27 15 0 5 10 12 22 16 29 9 299 167 361
210 26 19 49 34 52 34 3 0 46 27 94 60 79 53 117 81 235 172 17 13 64 52 105
87 42 35 101 84 131 110 91 76 422 410 491 496 35 44 71 87 79 96 51 55 83 93
140 167 35 45 67 82 72 82 4 0 8 5 8 10 0 6 9 21 20 33 12 12 44 58 73 102 28
44 54 82 57 85 3 3 11 17 19 33 8 15 18 27 23 27 4 0 8 5 8 11 0 6 14 30 30
54 17 24 30 48 30 54 0 5 11 22 25 37 14 15 25 33 25 41 0 8 5 11 10 8 15 -9
12 -51 -5 -65 -8 -7 -15 -18 -15 -24 0 -14 -82 -142 -113 -175 -14 -14 -27
-38 -31 -53 -3 -14 -17 -40 -31 -56 -14 -17 -25 -35 -25 -40 0 -6 -9 -17 -20
-25 -10 -7 -24 -25 -29 -40 -6 -15 -15 -27 -21 -27 -5 0 -10 -7 -10 -15 0 -19
-25 -60 -62 -100 -15 -16 -46 -59 -70 -95 -53 -81 -161 -219 -228 -291 -8 -9
-28 -33 -45 -54 -59 -75 -81 -100 -122 -142 -23 -24 -47 -43 -52 -43 -6 0 -11
-4 -11 -8 0 -12 -154 -162 -185 -181 -14 -9 -27 -23 -30 -31 -3 -9 -20 -24
-37 -35 -36 -21 -37 -21 -88 -65 -19 -17 -47 -36 -62 -42 -16 -7 -28 -19 -28
-25 0 -7 -6 -13 -13 -13 -8 0 -19 -11 -25 -25 -6 -14 -19 -25 -28 -25 -9 0
-38 -18 -63 -41 -25 -23 -56 -50 -67 -60 -12 -10 -31 -19 -43 -19 -14 0 -21
-6 -21 -20 0 -11 -4 -20 -10 -20 -5 0 -28 -8 -50 -17 -47 -21 -53 -43 -11 -43
43 0 43 -22 2 -43 l-36 -17 40 6 c22 4 44 10 50 15 17 16 26 9 23 -18 -2 -19
-11 -29 -35 -37 -47 -16 -57 -29 -44 -55 16 -29 36 -26 74 12 30 31 36 33 91
31 32 -1 63 -7 69 -13 8 -8 6 -11 -6 -11 -24 0 -22 -37 2 -45 11 -3 22 -12 25
-20 6 -17 36 -21 36 -5 0 6 18 10 40 10 22 0 40 -4 40 -10 0 -5 -7 -10 -16
-10 -14 0 -16 -9 -12 -52 3 -29 11 -54 17 -56 6 -2 11 -17 11 -34 0 -27 3 -30
23 -24 12 3 31 6 42 7 11 0 14 3 8 6 -7 2 -13 20 -13 39 0 24 -5 34 -15 34 -8
0 -15 4 -15 9 0 5 7 14 15 21 8 7 15 19 15 26 0 8 4 14 8 14 11 0 43 -57 40
-72 -2 -8 10 -14 35 -16 20 -2 37 -6 37 -8 0 -13 -30 -34 -49 -34 -11 0 -23
-4 -26 -10 -4 -6 6 -10 24 -10 16 0 31 6 33 12 4 10 10 10 32 0 31 -14 126
-16 126 -3 0 5 -6 11 -12 14 -10 4 -10 7 0 18 10 11 12 10 12 -3 0 -9 7 -18
15 -22 10 -4 15 -20 15 -51 0 -33 -4 -45 -15 -45 -8 0 -15 -7 -15 -15 0 -11
11 -15 40 -15 22 0 40 -4 40 -10 0 -5 20 -10 44 -10 26 0 48 -6 56 -15 7 -8
23 -15 36 -15 22 0 24 -4 24 -45 0 -45 5 -50 34 -39 16 6 23 54 8 54 -16 0
-33 48 -20 56 12 8 38 -22 38 -43 0 -7 5 -13 10 -13 6 0 10 -16 10 -35 0 -24
-5 -35 -14 -35 -19 0 -22 -6 -31 -55 -7 -39 -6 -39 12 -22 26 23 70 22 83 -2
16 -31 49 -36 71 -12 11 12 16 21 12 21 -4 0 -1 4 7 9 21 14 31 3 24 -25 -8
-31 9 -31 34 1 11 14 25 25 31 25 15 0 14 15 -3 29 -18 15 -27 51 -14 51 6 0
3 11 -5 24 -9 13 -21 45 -28 69 -6 25 -17 48 -25 51 -16 6 -20 96 -4 96 6 0
10 20 10 45 0 25 5 45 10 45 6 0 34 23 63 51 29 28 62 55 75 59 12 5 22 16 22
24 0 8 4 16 9 18 16 5 90 69 162 138 38 36 73 64 78 62 13 -4 42 28 36 39 -4
5 1 9 10 9 8 0 20 11 25 25 5 14 14 25 20 25 13 0 80 69 80 82 0 5 6 16 14 23
10 10 16 11 25 2 8 -8 11 -7 11 5 0 15 19 28 41 28 18 0 9 -28 -18 -58 -16
-17 -44 -50 -63 -73 -19 -24 -84 -93 -145 -154 -60 -61 -120 -122 -132 -136
-11 -13 -51 -51 -88 -84 -76 -68 -156 -150 -168 -171 -9 -15 20 -111 41 -132
6 -7 12 -23 12 -35 0 -23 37 -105 57 -125 7 -7 13 -24 13 -37 0 -13 7 -30 15
-39 8 -8 15 -21 15 -29 0 -23 11 -47 21 -47 12 0 -2 62 -18 78 -7 7 -13 24
-13 37 0 13 -6 30 -14 37 -7 8 -17 29 -21 48 -4 19 -14 40 -21 48 -8 7 -14 27
-14 43 0 17 -6 32 -15 35 -11 4 -15 21 -15 56 l0 51 347 345 c191 190 364 356
384 369 l37 24 55 -25 c29 -14 61 -26 69 -26 8 0 26 -8 39 -18 13 -10 40 -23
59 -29 19 -6 73 -25 120 -43 158 -58 199 -64 298 -45 48 10 96 22 106 27 40
21 144 37 178 27 96 -27 189 -1 238 68 14 19 31 40 38 48 6 7 12 16 12 19 0 4
36 62 57 92 14 18 30 47 63 109 18 33 45 79 61 103 16 24 29 49 29 57 0 8 5
17 11 20 5 4 15 17 20 28 5 12 27 54 49 92 21 39 53 97 70 130 17 33 35 67 39
75 5 8 21 40 36 70 14 30 30 62 34 70 5 8 19 38 31 65 43 97 53 120 61 135 28
52 59 121 59 132 0 7 7 22 15 32 18 24 20 121 3 143 -31 39 -131 133 -142 133
-5 0 -15 8 -68 53 -12 9 -24 17 -28 17 -3 0 -19 12 -36 28 -16 15 -48 40 -70
55 -23 15 -55 40 -72 55 -17 15 -40 34 -52 42 -30 20 -121 92 -141 110 -8 8
-26 22 -39 30 -12 8 -35 26 -49 39 -14 13 -37 32 -50 42 -19 15 -22 25 -18 56
7 51 37 157 47 163 4 3 10 25 14 50 4 24 11 49 16 55 4 5 13 33 18 60 6 28 15
64 20 80 18 51 34 119 73 305 6 30 17 78 24 105 41 161 48 195 57 247 10 51
13 57 47 71 20 9 79 18 131 22 52 3 122 12 155 20 33 7 83 18 110 25 115 26
141 33 160 46 11 8 26 14 35 14 8 0 27 6 42 14 15 8 69 18 120 22 99 7 136 23
190 80 25 27 28 40 42 184 18 174 22 900 6 980 -5 25 -12 124 -16 220 -4 115
-11 180 -19 190 -7 8 -15 27 -19 43 -3 15 -13 27 -21 27 -8 0 -15 7 -15 15 0
21 -76 55 -124 55 -23 1 -61 5 -86 11 -25 5 -94 14 -155 20 -60 5 -121 14
-135 19 -14 6 -75 14 -136 19 -61 5 -120 14 -132 20 -11 6 -55 11 -97 11 -76
0 -76 0 -87 31 -7 19 -14 27 -20 21 -14 -14 -6 -54 12 -62 41 -20 123 -39 195
-45 44 -4 88 -11 97 -16 9 -5 72 -14 139 -20 68 -5 128 -14 134 -19 7 -5 52
-12 101 -15 109 -7 262 -34 290 -52 17 -11 22 -29 31 -111 12 -114 17 -300 8
-291 -3 4 -8 53 -11 109 -4 70 -10 107 -20 117 -8 8 -14 30 -14 49 0 19 -6 50
-14 68 -11 27 -22 35 -67 49 -41 12 -48 16 -29 18 14 2 -42 6 -125 9 -82 4
-184 12 -225 18 -84 13 -226 30 -345 41 -152 15 -184 29 -213 89 -12 26 -22
55 -22 65 0 11 -6 33 -14 50 -20 46 -67 231 -95 372 -4 22 -12 49 -18 60 -11
22 -33 85 -64 183 -11 34 -24 62 -28 62 -5 0 -15 20 -22 43 -11 40 -15 44 -41
41 -20 -3 -28 1 -28 11 0 8 -9 15 -20 15 -11 0 -20 -7 -20 -15 0 -8 -4 -15
-10 -15 -6 0 -10 38 -10 94 0 52 -4 97 -9 101 -5 3 -17 -13 -27 -35 -18 -40
-18 -40 -30 -18 -12 21 -13 20 -17 -22 -2 -25 -4 10 -5 77 -1 71 2 124 8 128
5 3 7 0 5 -8 -3 -7 1 -28 8 -47 l15 -33 7 51 c5 38 13 55 27 63 18 10 20 9 16
-9 -3 -12 -1 -23 5 -25 7 -2 7 -13 -1 -36 -8 -23 -9 -39 -1 -52 18 -34 29 -20
29 36 0 30 -4 55 -8 55 -4 0 -12 15 -17 32 -13 42 -45 51 -45 14 0 -28 -9 -33
-28 -14 -9 9 -12 9 -12 -1 0 -10 -9 -11 -36 -7 -34 7 -74 33 -74 48 0 13 28 9
32 -4 3 -8 9 -8 24 0 18 11 18 11 -3 12 -20 0 -23 5 -23 40 0 22 -4 40 -10 40
-5 0 -10 18 -10 40 0 33 3 40 20 40 17 0 20 7 20 40 0 30 -4 40 -16 40 -14 0
-16 8 -11 55 3 30 1 57 -4 60 -5 4 -9 1 -9 -5 0 -6 -13 -1 -30 12 -27 20 -30
27 -30 80 l0 58 40 0 c29 0 40 4 40 15 0 11 11 15 40 15 29 0 40 4 40 15 0 8
-5 15 -11 15 -8 0 -10 21 -5 70 6 58 4 80 -13 125 -18 49 -19 56 -5 70 8 8 20
15 25 15 5 0 9 14 9 30 0 28 2 30 39 30 37 0 40 -2 43 -30 l3 -29 40 19 c38
17 38 18 13 19 -26 1 -28 4 -28 41 0 22 5 40 10 40 6 0 10 18 10 40 0 22 5 40
10 40 6 0 10 17 10 38 0 20 4 32 8 26 4 -7 16 -13 27 -15 12 -3 21 -14 23 -27
5 -33 32 -28 32 6 0 15 5 33 12 40 9 9 8 12 -5 12 -24 0 -34 64 -14 85 10 9
18 11 22 5 3 -5 2 -10 -4 -10 -5 0 -2 -18 6 -40 14 -36 27 -45 51 -37 4 1 6 5
5 8 -1 4 6 14 16 23 16 14 18 27 14 80 -3 37 -1 71 6 84 8 16 8 27 -1 46 -16
36 -28 32 -28 -7 0 -23 -5 -34 -15 -34 -16 0 -30 27 -18 36 11 9 33 49 33 62
0 6 7 17 15 25 8 9 15 26 15 39 0 28 9 55 19 55 10 0 33 -78 27 -88 -3 -4 0
-14 6 -22 8 -13 9 -12 5 1 -3 10 5 26 19 40 13 12 24 30 24 40 0 22 -73 181
-101 220 -11 17 -35 55 -51 87 -37 69 -118 172 -136 172 -7 0 -15 -6 -18 -14
-3 -8 -18 -16 -33 -19 -16 -3 -36 -13 -45 -22 -9 -9 -16 -12 -16 -6 0 18 -24
12 -38 -9 -7 -11 -19 -20 -28 -20 -14 0 -163 -66 -204 -90 -41 -25 -138 -69
-165 -76 -16 -4 -41 -15 -54 -26 -13 -10 -28 -18 -33 -18 -10 0 -92 -35 -123
-52 -29 -16 -117 -10 -161 11 -42 21 -135 113 -214 213 -28 35 -67 81 -88 103
-20 22 -59 67 -87 100 -27 32 -92 102 -143 155 -51 52 -103 110 -115 127 -12
18 -26 33 -31 33 -10 0 -77 71 -103 108 -8 12 -21 22 -27 22 -12 0 -51 41 -80
85 -11 16 -15 36 -12 50 3 13 2 26 -3 29 -11 7 -2 87 10 100 5 6 9 -23 9 -68
l0 -78 50 -50 c28 -28 50 -54 50 -59 0 -5 9 -9 20 -9 11 0 20 -4 20 -10 0 -14
114 -130 128 -130 7 0 12 -5 12 -11 0 -6 19 -27 41 -47 43 -38 48 -43 145
-147 116 -124 186 -195 195 -195 5 0 9 -4 9 -10 0 -5 9 -19 20 -30 11 -11 25
-20 30 -20 6 0 10 -7 10 -15 0 -9 7 -18 15 -21 8 -4 15 -12 15 -19 0 -8 9 -17
20 -20 11 -3 20 -12 20 -18 0 -7 16 -29 35 -50 19 -21 35 -42 35 -47 0 -5 14
-17 32 -26 56 -29 119 -14 308 73 41 19 91 42 110 50 19 9 42 20 50 25 8 4 22
11 30 14 8 3 22 10 30 15 16 10 44 23 95 44 17 7 47 20 68 29 21 9 44 16 52
16 8 0 15 4 15 9 0 13 94 58 139 66 31 5 48 3 66 -9 13 -9 31 -16 40 -16 30 0
-8 40 -50 51 -49 14 -153 4 -175 -16 -9 -8 -32 -18 -51 -21 -19 -4 -38 -10
-44 -14 -5 -4 -82 -10 -171 -13 -111 -4 -169 -10 -190 -20 -61 -31 -122 -57
-132 -57 -6 0 -12 -3 -14 -7 -2 -5 -32 -23 -68 -41 -36 -18 -78 -41 -95 -52
-51 -32 -70 -26 -138 46 -34 36 -63 70 -65 75 -2 5 -10 9 -18 9 -8 0 -14 9
-14 20 0 11 -4 20 -10 20 -9 0 -60 47 -60 56 0 2 -13 18 -30 34 -16 16 -30 34
-30 40 0 5 -7 10 -15 10 -8 0 -15 5 -15 11 0 13 -14 28 -280 297 -189 191
-210 216 -210 246 0 19 9 43 20 56 11 13 20 30 20 39 0 9 6 25 14 36 7 11 17
35 21 53 3 17 11 32 16 32 5 0 9 7 9 15 0 19 53 149 63 153 4 2 7 12 7 23 0
11 9 37 20 59 11 22 20 48 20 58 0 11 7 25 15 32 8 7 15 21 15 32 0 11 6 32
14 46 37 68 86 204 86 236 0 32 -39 94 -84 133 -51 45 -162 123 -175 123 -5 0
-11 7 -15 15 -3 8 -12 15 -20 15 -8 0 -21 6 -28 13 -7 7 -44 32 -83 57 -38 24
-72 48 -75 52 -3 4 -17 12 -30 17 -27 12 -40 20 -112 69 -26 17 -50 32 -52 32
-2 0 -28 16 -57 35 -30 19 -59 35 -65 35 -7 0 -14 7 -18 15 -3 8 -12 15 -19
15 -8 0 -24 9 -37 20 -13 11 -29 20 -37 20 -7 0 -13 4 -13 9 0 5 -9 13 -20 16
-11 3 -26 12 -32 18 -7 7 -38 25 -68 40 -127 65 -175 93 -183 105 -4 6 -16 12
-27 12 -10 0 -25 6 -32 13 -7 7 -36 21 -64 31 -48 18 -53 18 -120 1 -38 -9
-75 -22 -83 -28 -19 -16 -93 -36 -170 -47 -35 -5 -68 -14 -75 -19 -6 -5 -25
-12 -43 -15 -39 -9 -110 -59 -154 -110 -19 -22 -41 -47 -50 -57 -9 -9 -36 -41
-59 -70 -79 -100 -125 -154 -190 -220 l-65 -67 -52 8 c-28 5 -60 13 -70 18
-10 5 -37 13 -60 17 -24 4 -45 11 -48 15 -3 5 -27 12 -53 16 -26 3 -51 10 -57
14 -9 8 -56 22 -180 55 -27 7 -63 18 -80 23 -43 15 -112 32 -171 43 -28 5 -67
16 -87 24 -20 8 -47 15 -60 15 -42 0 -64 45 -76 156 -6 54 -15 122 -20 149 -5
28 -10 75 -11 105 0 30 -7 87 -15 125 -9 39 -18 111 -21 160 -3 50 -12 107
-20 128 -8 20 -14 51 -14 67 0 17 -4 30 -8 30 -5 0 -14 11 -20 24 -6 13 -26
36 -46 51 -32 24 -47 28 -163 36 -70 5 -173 13 -228 19 -55 5 -345 9 -645 8
l-545 0 -80 -34z m1575 -74 c0 -5 -9 -10 -20 -10 -11 0 -20 5 -20 10 0 6 9 10
20 10 11 0 20 -4 20 -10z m64 -5 c6 -16 -3 -19 -28 -9 -9 3 -13 10 -10 15 8
14 31 11 38 -6z m53 -45 c13 0 23 -129 13 -149 -11 -20 -20 0 -31 67 -5 31
-11 71 -15 87 -5 27 -4 28 9 13 8 -10 19 -18 24 -18z m47 -246 c9 -66 7 -177
-3 -192 -13 -21 -21 36 -21 144 0 99 13 125 24 48z m30 -250 c9 -24 7 -204 -3
-204 -11 0 -21 75 -21 156 0 61 11 82 24 48z m41 -294 c4 -42 -7 -81 -19 -69
-10 10 -19 127 -11 146 6 16 8 15 17 -7 5 -14 11 -45 13 -70z m-1372 -85 c-3
-8 -9 -15 -14 -15 -10 0 -12 24 -3 33 11 11 24 -3 17 -18z m-13 -275 c0 -5 -4
-10 -9 -10 -6 0 -13 5 -16 10 -3 6 1 10 9 10 9 0 16 -4 16 -10z m4703 -247 c9
-46 -7 -142 -21 -128 -13 13 -9 155 4 155 6 0 14 -12 17 -27z m-37 -170 c-2
-15 -8 -29 -15 -31 -12 -4 -15 17 -5 42 10 26 23 18 20 -11z m-44 -105 c-9 -9
-12 -4 -11 23 0 32 1 33 11 11 8 -17 8 -26 0 -34z m-32 -73 c0 -19 -4 -35 -8
-35 -4 0 -6 16 -4 35 2 19 6 35 8 35 2 0 4 -16 4 -35z m-39 -118 c-8 -8 -11
-2 -11 19 0 40 14 54 18 19 2 -15 -1 -32 -7 -38z m-21 -36 c0 -16 -12 -41 -20
-41 -4 0 -5 11 -2 25 4 23 22 36 22 16z m-40 -98 c0 -22 -2 -25 -10 -13 -13
20 -13 40 0 40 6 0 10 -12 10 -27z m-28 -68 c-2 -25 -8 -45 -13 -45 -10 0 -12
13 -9 50 2 28 8 40 18 40 4 0 6 -20 4 -45z m-37 -87 c-10 -46 -25 -59 -25 -22
0 26 15 54 28 54 2 0 1 -15 -3 -32z m-4095 -133 c107 -9 220 -20 250 -26 30
-5 96 -14 145 -20 50 -5 102 -16 117 -24 14 -8 44 -15 66 -15 22 0 64 -7 93
-16 117 -33 155 -44 189 -50 19 -3 46 -12 60 -19 14 -7 41 -18 60 -24 74 -22
-89 -6 -300 29 -272 46 -1100 42 -1291 -6 -31 -8 -74 -14 -96 -14 -21 0 -54
-5 -73 -10 -19 -6 -64 -15 -100 -20 -36 -5 -87 -16 -115 -24 -48 -14 -90 -24
-205 -49 -30 -7 -65 -18 -77 -25 -12 -6 -32 -12 -45 -12 -13 -1 -34 -7 -48
-15 -14 -8 -33 -14 -43 -15 -11 0 -33 -6 -50 -14 -18 -8 -48 -19 -67 -25 -19
-5 -87 -28 -150 -51 -63 -22 -131 -46 -150 -51 -19 -6 -39 -15 -45 -20 -5 -5
-15 -9 -23 -9 -7 0 -32 -8 -55 -18 -23 -10 -62 -26 -87 -36 -25 -10 -58 -24
-75 -31 -57 -26 -150 -67 -170 -75 -69 -28 -317 -147 -355 -170 -45 -27 -235
-137 -259 -150 -27 -15 -256 -175 -277 -195 -7 -5 -24 -19 -39 -29 -14 -11
-36 -28 -47 -38 -12 -10 -24 -18 -27 -18 -3 0 -20 -12 -36 -27 -16 -16 -53
-46 -82 -69 -126 -98 -421 -392 -570 -569 -130 -154 -187 -225 -215 -267 -17
-27 -35 -48 -40 -48 -4 0 -8 -4 -8 -10 0 -15 -80 -128 -96 -134 -8 -3 -14 -14
-14 -25 0 -11 -8 -22 -19 -26 -10 -3 -18 -13 -17 -22 0 -9 -5 -18 -11 -20 -18
-6 -16 22 2 37 8 7 15 18 15 26 0 7 7 20 16 28 8 9 17 26 19 38 3 13 9 24 15
26 5 2 10 9 10 15 0 6 9 20 19 31 10 12 27 37 38 56 24 44 44 77 104 168 27
40 49 75 49 79 0 3 31 42 68 87 37 44 93 112 123 151 29 38 61 77 69 86 8 9
26 30 39 45 135 165 384 412 518 517 15 12 39 33 53 47 14 14 48 43 75 65 27
22 57 47 65 55 17 17 147 118 180 140 12 8 28 20 34 25 6 6 45 33 86 60 41 27
77 52 80 55 3 3 16 11 30 18 32 15 60 33 78 50 7 6 17 12 22 12 5 0 15 6 22
13 7 7 24 18 38 25 14 7 59 31 100 53 144 79 225 119 239 119 8 0 22 6 30 13
9 7 36 21 61 31 25 10 59 24 75 31 56 23 140 53 210 75 39 12 85 28 103 36 18
8 43 14 55 14 12 0 34 7 49 14 16 8 49 18 75 22 27 3 53 10 58 15 6 4 35 12
65 17 30 5 75 14 100 20 137 33 308 58 495 73 72 6 171 14 220 18 150 14 389
12 595 -4z m435 -190 c33 -8 89 -14 125 -15 36 0 92 -7 125 -15 32 -9 86 -18
119 -21 34 -3 79 -12 101 -19 22 -8 66 -17 98 -20 31 -4 57 -10 57 -14 0 -5
25 -11 56 -15 31 -3 69 -13 84 -21 16 -8 41 -15 55 -15 15 0 41 -6 58 -13 18
-8 66 -24 107 -36 41 -13 88 -29 103 -37 16 -8 38 -14 50 -14 12 -1 40 -9 62
-20 22 -11 45 -19 52 -20 6 0 24 -6 40 -14 70 -35 122 -56 137 -56 9 0 16 -4
16 -9 0 -5 12 -12 28 -15 24 -6 155 -64 192 -86 8 -5 53 -29 100 -53 132 -69
153 -81 168 -94 7 -7 22 -13 33 -13 11 0 22 -6 25 -13 2 -7 26 -24 52 -37 26
-14 51 -31 55 -37 4 -7 14 -13 22 -13 7 0 20 -6 27 -12 25 -23 77 -58 87 -58
5 0 11 -3 13 -8 2 -4 32 -28 68 -54 36 -26 72 -54 81 -63 9 -8 19 -15 22 -15
4 0 16 -8 28 -17 47 -40 58 -49 79 -63 13 -8 35 -26 49 -38 14 -13 49 -43 76
-65 64 -54 391 -380 474 -474 35 -40 75 -89 90 -110 14 -21 32 -42 39 -46 6
-4 12 -14 12 -22 0 -8 7 -18 15 -22 21 -12 31 -69 13 -75 -7 -3 -96 -1 -198 4
-102 4 -432 10 -735 13 -302 2 -564 9 -580 13 -17 5 -60 31 -97 58 -141 104
-195 142 -248 173 -30 17 -62 36 -70 41 -82 48 -132 74 -230 120 -140 64 -179
81 -250 108 -30 11 -90 34 -133 51 -42 16 -94 33 -115 36 -20 4 -46 10 -57 15
-98 43 -462 107 -680 119 -175 10 -667 -3 -708 -18 -15 -6 -64 -14 -109 -17
-45 -4 -93 -13 -107 -21 -14 -7 -43 -13 -63 -13 -21 0 -57 -7 -82 -15 -25 -9
-64 -20 -88 -25 -77 -16 -132 -32 -163 -46 -16 -7 -47 -16 -67 -20 -21 -3 -38
-10 -38 -14 0 -5 -18 -11 -39 -15 -22 -3 -47 -13 -58 -20 -10 -8 -24 -15 -31
-15 -15 0 -24 -4 -165 -69 -49 -23 -92 -41 -98 -41 -5 0 -9 -4 -9 -8 0 -5 -17
-16 -37 -25 -21 -9 -65 -32 -98 -51 -33 -20 -69 -40 -80 -46 -11 -6 -38 -22
-60 -35 -22 -14 -50 -30 -62 -36 -13 -7 -23 -16 -23 -21 0 -4 -4 -8 -10 -8 -8
0 -109 -65 -145 -93 -5 -4 -35 -25 -65 -47 -49 -36 -114 -87 -144 -115 -6 -6
-36 -30 -66 -55 -30 -24 -84 -72 -120 -106 -36 -35 -76 -73 -90 -86 -30 -28
-86 -91 -155 -173 -27 -32 -57 -66 -65 -75 -9 -9 -29 -34 -45 -55 -16 -22 -41
-54 -55 -71 -14 -17 -32 -41 -40 -54 -8 -12 -30 -42 -47 -66 -18 -23 -33 -47
-33 -52 0 -5 -9 -17 -20 -27 -11 -10 -20 -23 -20 -28 0 -6 -6 -18 -14 -26 -7
-9 -24 -36 -38 -61 -13 -25 -35 -63 -49 -85 -35 -54 -72 -126 -124 -237 -14
-32 -30 -60 -36 -63 -5 -4 -9 -14 -9 -23 0 -10 -9 -34 -20 -55 -11 -20 -20
-43 -20 -51 0 -8 -7 -27 -15 -43 -22 -43 -41 -91 -65 -168 -12 -38 -27 -83
-32 -100 -5 -16 -14 -50 -19 -75 -6 -25 -14 -53 -20 -63 -6 -10 -13 -42 -16
-70 -3 -29 -11 -63 -18 -77 -7 -14 -16 -64 -20 -112 -4 -48 -11 -86 -15 -83
-5 3 -11 -34 -15 -82 -3 -49 -13 -131 -21 -184 -15 -104 -18 -514 -4 -559 4
-14 8 90 9 236 1 201 4 271 15 303 8 22 16 83 17 134 1 52 7 110 14 130 7 20
15 63 19 96 4 33 13 73 21 88 8 16 15 39 15 52 0 13 12 60 26 105 26 79 57
122 79 108 7 -5 2413 -20 3367 -21 25 0 49 -5 53 -11 3 -5 -3 -27 -13 -48 -11
-20 -33 -64 -49 -97 -37 -74 -122 -220 -199 -340 -32 -49 -78 -121 -102 -160
-80 -125 -154 -239 -183 -283 -16 -23 -29 -45 -29 -47 0 -3 -15 -27 -33 -53
-18 -26 -37 -54 -41 -62 -12 -25 -61 -103 -79 -125 -7 -9 -137 -207 -162 -247
-5 -9 -25 -40 -43 -70 -51 -83 -55 -89 -89 -140 -18 -26 -33 -50 -33 -53 0 -3
-15 -27 -33 -53 -18 -26 -36 -54 -40 -62 -8 -17 -19 -35 -64 -102 -18 -26 -33
-51 -33 -54 0 -3 -21 -38 -47 -78 -27 -39 -56 -87 -66 -106 -18 -34 -67 -110
-77 -120 -14 -14 -50 -70 -50 -78 0 -5 -9 -17 -20 -27 -11 -10 -20 -22 -20
-27 0 -5 -24 -46 -54 -91 -29 -45 -61 -96 -70 -112 -9 -17 -37 -61 -62 -100
-24 -38 -48 -77 -52 -85 -4 -8 -33 -55 -66 -105 -32 -49 -74 -115 -93 -145
-20 -30 -44 -67 -54 -82 -11 -15 -19 -30 -19 -33 0 -6 -41 -66 -51 -75 -3 -3
-23 -34 -44 -70 -46 -77 -66 -110 -199 -318 -25 -40 -46 -75 -46 -77 0 -2 -14
-24 -30 -47 -53 -74 -125 -179 -135 -196 -6 -9 -32 -49 -58 -89 -26 -40 -52
-83 -57 -95 -11 -26 -32 -61 -41 -68 -3 -3 -14 -18 -23 -35 -9 -16 -28 -48
-42 -70 -14 -22 -27 -48 -31 -58 -3 -9 -9 -17 -13 -17 -4 0 -12 -10 -19 -22
-6 -13 -19 -35 -29 -49 -32 -49 -126 -204 -141 -234 -11 -19 -28 -43 -134
-186 -26 -35 -55 -81 -65 -102 -14 -32 -21 -36 -41 -31 -29 6 -141 83 -141 96
0 5 -8 12 -17 15 -26 10 -123 111 -123 128 0 13 28 14 50 0 14 -8 222 24 238
37 7 6 36 12 65 14 28 2 55 3 58 4 23 1 87 84 110 143 6 15 15 27 20 27 5 0 9
6 9 13 0 7 15 35 33 62 17 28 44 75 60 105 27 54 32 64 55 105 6 11 24 45 39
75 15 30 33 61 40 68 6 6 15 22 19 35 4 12 10 24 14 27 11 8 90 147 90 159 0
6 4 11 9 11 5 0 12 12 16 27 3 15 10 30 14 33 13 9 61 118 61 139 0 30 -11 51
-26 51 -8 0 -14 7 -14 15 0 8 -7 15 -15 15 -19 0 -19 -2 5 -30 23 -26 26 -72
7 -92 -7 -7 -16 -20 -20 -28 -4 -8 -18 -33 -31 -55 -14 -22 -39 -68 -56 -102
-18 -35 -35 -63 -40 -63 -4 0 -10 -8 -14 -18 -3 -9 -10 -24 -15 -32 -5 -8 -35
-60 -66 -115 -31 -55 -60 -107 -65 -115 -5 -8 -21 -40 -37 -70 -15 -30 -31
-57 -34 -60 -4 -3 -21 -32 -38 -65 -18 -33 -43 -78 -57 -100 -13 -22 -27 -46
-31 -54 -10 -23 -42 -51 -57 -51 -27 0 -395 365 -591 586 -5 6 -26 30 -45 54
-19 23 -42 51 -52 60 -9 10 -42 53 -74 97 -33 43 -61 80 -64 83 -4 3 -16 22
-29 43 -13 21 -28 43 -35 50 -7 6 -26 34 -42 60 -16 27 -36 59 -44 72 -24 37
-83 134 -109 179 -54 94 -201 387 -201 400 0 7 -6 19 -14 25 -8 7 -17 24 -20
39 -6 25 -23 65 -52 122 -7 14 -15 42 -19 63 -4 20 -11 37 -15 37 -5 0 -11 15
-15 33 -3 17 -12 48 -19 67 -22 58 -56 174 -56 191 0 8 -4 19 -9 25 -6 5 -16
38 -25 74 -8 36 -21 94 -30 130 -9 36 -22 99 -30 140 -8 41 -19 89 -25 105 -5
17 -12 57 -15 90 -2 33 -9 80 -15 105 -10 42 -19 124 -41 355 -11 118 -11 678
0 780 4 44 13 130 20 190 6 61 17 140 25 176 8 37 15 86 15 109 0 40 16 123
47 240 8 30 18 78 23 106 4 28 12 60 18 70 6 11 13 40 17 67 4 26 11 50 16 53
5 3 9 15 9 27 1 12 8 40 16 62 9 22 19 54 24 70 14 50 40 119 50 137 6 10 10
23 10 30 0 11 13 42 61 144 10 23 19 46 19 52 0 6 7 23 15 39 8 15 48 98 90
183 87 176 131 260 165 316 13 21 29 48 35 59 23 40 40 69 48 79 26 37 57 88
57 96 0 4 3 10 8 12 4 2 21 23 37 48 17 25 33 50 38 55 140 184 231 301 236
305 3 3 26 30 51 60 102 125 461 482 515 513 8 4 27 19 42 33 14 13 40 35 56
47 16 12 34 27 40 32 35 32 207 165 213 165 3 0 25 15 47 33 23 17 49 37 59
42 9 6 45 29 78 53 33 23 64 42 67 42 4 0 14 6 22 14 17 15 88 55 181 103 30
15 61 34 68 40 7 7 22 13 31 13 10 0 24 6 30 14 7 8 25 18 41 21 16 3 34 13
41 21 6 8 17 14 25 14 7 0 43 16 81 35 37 19 73 35 80 35 6 0 25 7 42 15 17 8
45 22 62 30 17 8 38 15 47 15 10 0 34 9 55 20 20 11 47 20 60 20 12 0 31 6 42
14 11 7 35 17 53 21 18 4 45 13 60 21 15 8 37 14 48 14 12 0 35 7 50 15 16 8
39 15 52 15 12 0 38 6 57 14 19 8 56 18 82 22 26 3 57 11 67 17 11 5 45 13 75
18 145 22 249 41 279 50 19 6 88 15 155 20 67 5 138 13 157 18 19 5 188 9 375
10 265 0 353 -3 400 -14z m683 -42 c-10 -2 -28 -2 -40 0 -13 2 -5 4 17 4 22 1
32 -1 23 -4z m-1018 -1297 c36 -8 99 -19 140 -25 91 -14 218 -41 325 -71 44
-12 96 -26 115 -30 31 -8 114 -37 193 -68 15 -7 27 -9 27 -5 0 3 8 0 18 -8 24
-21 106 -59 126 -59 9 0 16 -4 16 -10 0 -5 6 -10 14 -10 17 0 80 -32 84 -42 2
-5 12 -8 22 -8 11 0 42 -20 70 -45 28 -25 61 -45 73 -45 13 0 46 -21 77 -49
30 -27 58 -47 62 -45 4 3 5 -2 2 -10 -4 -11 0 -16 14 -16 10 0 31 -9 45 -20
14 -11 35 -20 47 -20 12 0 28 -6 35 -14 12 -12 10 -15 -13 -20 -101 -21 -598
-27 -2002 -22 -833 2 -1531 5 -1551 5 -21 1 -57 -6 -80 -15 -59 -22 -91 -26
-108 -15 -10 7 -2 20 38 57 88 84 108 100 241 186 149 97 269 163 390 216 105
46 121 52 133 52 7 0 24 6 39 14 15 8 42 17 60 21 18 4 47 13 63 20 44 18 112
35 180 45 33 5 86 16 118 25 32 8 72 15 90 15 18 0 48 5 67 11 94 29 695 33
830 5z m3930 -138 c0 -5 -4 -8 -10 -8 -5 0 -10 10 -10 23 0 18 2 19 10 7 5 -8
10 -18 10 -22z m46 -40 c13 -13 24 -26 24 -30 0 -4 10 -18 23 -32 26 -28 34
-39 67 -86 13 -19 33 -44 43 -55 10 -11 27 -36 37 -55 10 -19 37 -53 59 -76
22 -23 45 -52 51 -65 6 -13 29 -49 51 -79 74 -103 119 -171 119 -183 0 -7 14
-30 30 -51 17 -22 30 -43 30 -48 0 -5 11 -26 25 -46 14 -20 25 -45 25 -54 0
-10 5 -18 10 -18 6 0 10 -5 10 -12 0 -6 10 -32 21 -57 12 -25 45 -95 74 -156
28 -60 62 -137 75 -170 13 -33 27 -64 30 -70 4 -5 11 -26 15 -45 4 -19 11 -39
15 -45 4 -5 17 -41 30 -80 12 -38 31 -93 41 -120 11 -28 19 -60 19 -71 0 -11
5 -25 11 -31 6 -6 17 -35 25 -65 7 -29 22 -86 33 -127 11 -40 22 -103 26 -140
3 -36 10 -84 15 -106 13 -58 21 -175 11 -175 -8 0 -47 115 -57 170 -4 19 -10
40 -14 45 -4 6 -10 28 -14 50 -4 22 -13 60 -21 85 -7 25 -22 77 -33 115 -49
171 -64 221 -72 240 -5 11 -14 40 -21 65 -6 25 -14 50 -19 55 -4 6 -19 42 -33
82 -15 40 -30 80 -35 90 -22 43 -52 111 -52 118 0 9 -203 420 -220 445 -6 8
-15 26 -20 40 -6 14 -19 39 -29 57 -11 17 -39 67 -62 110 -46 85 -56 102 -106
180 -18 28 -33 55 -33 60 0 4 -16 25 -35 47 -19 21 -35 44 -35 51 0 6 -9 20
-20 30 -11 10 -20 24 -20 30 0 7 -7 18 -15 25 -8 7 -15 21 -15 31 0 11 -6 19
-12 19 -7 0 -24 17 -38 38 -14 20 -30 41 -37 45 -13 8 -18 47 -7 47 3 0 17
-10 30 -22z m-394 -439 c29 -6 63 -20 74 -31 62 -56 129 -197 106 -220 -5 -5
-40 -13 -78 -18 -143 -18 -176 -30 -219 -76 -51 -54 -115 -143 -115 -158 0 -6
-8 -19 -19 -28 -10 -8 -21 -22 -24 -29 -4 -12 -7 -12 -18 -1 -12 11 -10 16 9
32 12 10 22 28 22 39 0 12 6 24 14 27 7 3 25 28 40 57 15 29 31 59 36 67 27
46 108 219 113 242 10 37 -4 43 -100 43 -95 0 -130 18 -67 33 130 32 160 35
226 21z m-4552 -59 c373 -12 775 -30 809 -36 49 -10 7 -18 -136 -25 -126 -6
-248 -21 -365 -45 -26 -5 -27 -7 -22 -62 3 -31 7 -59 9 -62 1 -3 -1 -30 -5
-60 -6 -41 -4 -59 6 -71 8 -8 14 -20 14 -26 0 -12 76 -93 88 -93 4 0 12 -11
18 -24 9 -19 7 -27 -13 -46 -30 -29 -29 -40 2 -40 14 0 25 -4 25 -10 0 -10
-14 -14 -38 -11 -8 1 -19 -3 -27 -9 -17 -14 15 -78 47 -94 28 -14 34 -39 13
-59 -21 -21 -19 -37 5 -37 11 0 20 -5 20 -10 0 -6 13 -18 30 -28 23 -14 27
-21 18 -30 -7 -7 -8 -12 -3 -12 4 0 0 -9 -11 -21 -19 -21 -18 -21 11 -47 17
-14 22 -23 13 -19 -14 5 -18 1 -18 -16 1 -37 22 -54 78 -62 57 -8 71 -30 27
-41 -19 -5 -24 -11 -20 -25 5 -14 2 -17 -9 -13 -32 12 -18 -43 16 -70 31 -24
32 -26 16 -43 -17 -16 -16 -19 15 -51 l32 -33 -27 -24 c-23 -20 -25 -25 -13
-35 8 -7 15 -21 15 -31 0 -36 38 -60 119 -75 42 -7 90 -13 106 -14 17 0 61 -7
98 -17 53 -12 65 -18 52 -25 -33 -19 -506 -30 -1025 -24 -881 11 -1584 26
-1576 34 9 9 138 18 386 27 58 2 168 6 245 9 77 3 226 8 330 11 223 6 315 14
315 25 0 4 -20 11 -45 14 -45 7 -45 8 -45 47 0 28 -4 39 -15 39 -11 0 -15 11
-15 40 0 22 -4 40 -10 40 -5 0 -10 18 -10 40 0 22 -4 40 -10 40 -5 0 -10 -4
-10 -10 0 -18 -18 -11 -25 9 -9 29 -34 33 -62 11 -14 -11 -32 -20 -39 -20 -7
0 -19 -9 -28 -21 -17 -26 -48 -22 -61 8 -5 12 -16 21 -25 20 -25 -3 -27 17 -2
28 13 6 22 18 22 33 0 12 5 31 12 42 7 10 9 23 5 27 -5 4 -12 1 -17 -7 -7 -12
-12 -12 -28 3 -10 9 -26 17 -35 17 -9 0 -17 5 -17 10 0 6 -7 10 -15 10 -8 0
-15 7 -15 15 0 7 -6 18 -13 22 -8 4 -16 16 -20 26 -5 13 -1 17 18 17 16 0 25
-6 25 -15 0 -17 25 -20 35 -5 11 18 -20 38 -48 33 -17 -3 -27 -1 -27 7 0 22
-29 40 -64 40 -20 0 -36 5 -36 10 0 6 6 10 13 10 8 0 9 3 1 8 -14 9 -25 90
-14 97 5 3 15 -2 23 -10 17 -17 37 -20 37 -6 0 6 -5 13 -11 17 -6 3 -9 17 -6
30 4 21 1 24 -28 24 -24 0 -37 -7 -49 -25 -20 -31 -66 -35 -66 -6 0 11 -13 33
-30 49 -32 32 -44 76 -15 52 22 -18 38 0 29 34 -7 27 -44 38 -44 12 0 -16 -41
-29 -64 -20 -22 8 -20 18 9 64 24 38 25 41 9 65 -13 20 -14 28 -4 40 7 8 9 15
4 15 -5 0 -2 4 6 10 21 13 40 -7 40 -44 0 -24 3 -27 10 -16 17 27 12 145 -7
167 -27 30 -49 34 -69 12 -9 -10 -14 -19 -11 -19 3 0 -5 -12 -19 -27 -13 -14
-32 -48 -41 -74 -10 -26 -21 -45 -25 -43 -4 3 -17 -11 -29 -30 -12 -20 -25
-36 -30 -36 -5 0 -14 -10 -19 -22 -20 -44 -61 -113 -80 -133 -11 -12 -20 -25
-20 -29 0 -10 -43 -70 -57 -79 -7 -4 -13 -15 -13 -23 0 -8 -21 -42 -47 -77
-27 -34 -52 -69 -58 -78 -23 -36 -149 -227 -167 -254 -4 -5 -19 -23 -32 -39
-14 -15 -28 -37 -31 -47 -4 -11 -11 -19 -16 -19 -15 0 -50 -40 -44 -50 6 -10
-29 -50 -45 -50 -14 0 -13 37 1 46 6 3 17 21 25 38 28 61 82 150 93 154 6 2
11 12 11 22 0 10 5 22 10 25 6 4 17 21 26 38 15 32 31 61 62 108 9 15 32 53
51 85 19 33 38 61 43 62 4 2 8 10 8 18 0 8 16 36 35 63 19 26 35 51 35 54 0 3
16 29 35 58 19 30 35 59 35 65 0 7 7 14 15 18 8 3 15 10 15 16 0 5 15 31 33
57 17 27 37 57 44 68 44 72 80 130 93 150 8 13 30 47 48 76 50 82 54 89 90
141 17 26 32 51 32 55 0 4 11 16 26 28 24 19 36 20 402 18 207 -2 519 -7 692
-13z m4386 -40 c13 0 24 -4 24 -10 0 -11 -73 -13 -110 -3 l-25 7 30 7 c17 4
36 5 43 3 8 -2 25 -4 38 -4z m-10 -107 c-11 -11 -17 4 -9 23 7 18 8 18 11 1 2
-10 1 -21 -2 -24z m-26 -38 c0 -8 -4 -15 -10 -15 -5 0 -10 7 -10 15 0 8 5 15
10 15 6 0 10 -7 10 -15z m526 -27 c3 -12 21 -43 38 -68 47 -70 55 -83 67 -110
5 -13 13 -27 17 -30 4 -3 21 -31 37 -63 17 -32 36 -70 44 -85 8 -15 18 -28 22
-30 5 -2 11 -19 15 -39 4 -19 13 -37 20 -40 8 -3 14 -12 14 -20 0 -8 6 -27 14
-41 15 -28 38 -79 76 -167 11 -27 28 -63 35 -78 8 -16 15 -36 15 -45 0 -9 7
-26 15 -36 8 -11 15 -29 15 -41 0 -11 6 -30 14 -41 8 -11 18 -38 22 -60 4 -21
13 -48 20 -59 6 -11 15 -36 19 -55 4 -19 11 -39 15 -45 4 -5 11 -29 15 -53 4
-24 13 -56 21 -70 8 -15 14 -36 14 -47 0 -11 9 -49 20 -83 11 -35 20 -76 20
-91 0 -15 5 -32 11 -38 6 -6 14 -42 16 -80 3 -37 10 -73 15 -80 5 -6 14 -56
19 -110 5 -54 14 -114 19 -133 44 -169 44 -1102 0 -1261 -5 -20 -14 -77 -19
-128 -6 -50 -14 -106 -20 -124 -5 -17 -14 -61 -20 -97 -5 -36 -15 -87 -21
-115 -24 -104 -52 -212 -66 -255 -8 -25 -14 -54 -14 -65 -1 -11 -7 -29 -15
-39 -8 -11 -15 -31 -15 -45 0 -14 -9 -46 -20 -70 -11 -24 -20 -53 -20 -65 0
-11 -7 -30 -15 -40 -8 -11 -15 -29 -15 -41 0 -11 -6 -29 -14 -40 -7 -11 -17
-36 -21 -55 -4 -19 -14 -51 -23 -70 -8 -19 -21 -50 -28 -67 -8 -18 -21 -48
-29 -65 -8 -18 -19 -44 -25 -58 -5 -14 -14 -32 -19 -40 -4 -8 -25 -51 -46 -95
-21 -44 -41 -87 -46 -95 -5 -8 -15 -28 -24 -45 -8 -16 -19 -37 -24 -45 -5 -8
-12 -22 -15 -30 -4 -8 -15 -28 -26 -45 -11 -16 -26 -43 -35 -60 -8 -16 -23
-42 -32 -56 -10 -15 -33 -51 -51 -80 -50 -82 -103 -162 -149 -229 -24 -33 -62
-87 -84 -120 -23 -33 -46 -60 -50 -60 -5 0 -9 -7 -9 -15 0 -7 -6 -18 -13 -22
-7 -4 -27 -28 -44 -53 -17 -25 -40 -54 -50 -65 -10 -11 -54 -60 -98 -110 -121
-138 -191 -209 -300 -308 -145 -130 -153 -137 -230 -197 -38 -30 -78 -61 -87
-69 -24 -22 -37 -32 -88 -66 -44 -29 -57 -39 -83 -60 -21 -17 -137 -95 -142
-95 -3 0 -26 -15 -52 -32 -62 -43 -82 -55 -118 -72 -16 -8 -57 -31 -90 -50
-53 -31 -98 -55 -200 -110 -16 -9 -36 -16 -42 -16 -7 0 -13 -4 -13 -10 0 -5
-16 -12 -35 -16 -19 -3 -39 -12 -46 -20 -6 -8 -18 -14 -27 -14 -14 0 -73 -25
-134 -56 -14 -8 -37 -14 -51 -14 -13 0 -30 -6 -36 -14 -7 -8 -28 -17 -49 -21
-20 -4 -42 -11 -47 -15 -6 -5 -29 -13 -50 -19 -38 -9 -62 -16 -137 -42 -18 -6
-58 -17 -89 -24 -30 -7 -65 -17 -77 -24 -11 -6 -35 -11 -52 -11 -17 0 -46 -6
-65 -14 -18 -8 -60 -17 -92 -21 -32 -4 -77 -13 -101 -21 -23 -8 -59 -14 -78
-14 -19 0 -72 -7 -117 -14 -263 -47 -624 -57 -979 -27 -311 26 -319 27 -342
44 -18 13 -18 15 0 46 11 19 25 45 33 60 8 14 27 42 42 62 16 20 29 42 29 47
0 6 6 17 13 24 7 7 18 24 25 38 7 14 18 34 25 45 7 11 30 52 51 90 22 39 43
72 48 73 4 2 8 8 8 13 0 6 35 68 78 140 42 72 83 142 91 157 8 15 17 29 20 32
3 3 26 44 51 93 25 48 48 87 52 87 5 0 8 6 8 14 0 8 8 24 18 36 16 20 25 21
177 22 88 0 201 6 250 14 50 7 113 14 141 14 28 0 73 6 100 14 27 8 78 17 114
21 36 4 70 11 77 17 6 5 39 13 74 19 35 6 68 14 74 18 5 5 31 12 57 15 26 4
50 11 53 16 3 4 24 11 48 15 23 4 51 14 62 21 11 8 29 14 40 14 11 1 38 9 60
20 22 11 46 19 53 20 7 0 20 7 28 15 9 8 26 15 39 15 13 0 30 6 37 14 8 7 29
17 46 21 18 3 32 11 32 16 0 5 6 9 12 9 22 0 287 138 319 166 8 8 18 14 22 14
3 0 32 18 64 41 32 22 81 56 108 75 28 20 64 46 80 59 17 14 55 44 85 67 30
24 84 70 119 103 113 107 251 243 251 248 0 3 17 22 38 44 51 54 78 86 147
173 33 41 63 77 67 80 4 3 17 21 30 40 14 19 41 59 61 87 20 29 37 55 37 58 0
3 5 11 11 18 20 23 114 174 139 223 14 27 28 50 32 52 4 2 12 19 18 38 6 19
16 34 21 34 5 0 9 5 9 11 0 6 18 50 41 97 22 48 44 96 49 107 4 11 18 41 30
67 32 70 107 282 143 408 9 30 26 86 37 124 11 38 20 80 20 93 0 13 7 40 15
60 8 19 15 54 15 77 0 22 7 70 15 105 18 76 35 298 35 471 0 186 -19 486 -35
557 -8 34 -15 81 -15 105 0 24 -5 61 -11 83 -6 22 -17 69 -25 105 -24 114 -49
215 -55 225 -4 6 -10 26 -13 45 -4 19 -13 51 -20 70 -8 19 -25 71 -39 115 -15
44 -36 105 -47 135 -12 30 -25 66 -30 80 -4 14 -15 39 -24 55 -9 17 -16 38
-16 47 0 9 -4 20 -10 23 -16 10 -10 47 15 90 13 22 29 49 35 60 5 11 19 34 30
50 11 17 25 41 32 55 7 14 18 31 25 38 7 7 13 18 13 23 0 5 9 22 19 37 20 28
107 163 128 197 7 11 17 31 23 45 6 13 15 27 19 30 5 3 22 28 37 56 61 108 99
171 142 234 25 36 55 79 66 95 49 72 78 85 92 43z m-563 -44 c-4 -10 -9 -12
-15 -6 -12 12 -1 35 12 27 5 -3 6 -13 3 -21z m-7868 -83 c3 -5 1 -12 -5 -16
-5 -3 -10 1 -10 9 0 18 6 21 15 7z m1843 -62 c-10 -6 -18 -16 -18 -23 0 -7 -9
-22 -20 -34 -12 -12 -18 -22 -15 -22 2 0 -11 -21 -31 -47 -19 -25 -44 -64 -56
-87 -11 -23 -24 -43 -28 -46 -4 -3 -13 -16 -20 -30 -7 -14 -33 -55 -56 -92
-24 -37 -44 -69 -44 -73 0 -3 -16 -28 -35 -55 -19 -27 -35 -54 -35 -59 0 -5
-7 -14 -15 -21 -12 -10 -75 -110 -121 -191 -6 -10 -18 -27 -27 -37 -10 -10
-17 -24 -17 -30 0 -7 -7 -12 -15 -12 -8 0 -15 -7 -15 -15 0 -8 -4 -15 -10 -15
-12 0 -13 6 0 28 11 20 50 111 70 162 7 19 18 41 23 48 11 14 41 68 56 99 5
12 24 41 41 64 16 23 30 46 30 52 0 5 13 26 29 46 15 20 31 46 35 59 4 12 14
22 22 22 8 0 14 4 14 10 0 13 65 106 106 150 17 19 33 41 35 47 2 7 29 40 59
73 38 41 57 57 65 49 7 -7 5 -13 -7 -20z m-1878 -6 c-1 -24 -2 -26 -11 -10 -5
9 -7 22 -4 27 10 17 15 11 15 -17z m2440 7 c0 -5 -4 -10 -10 -10 -5 0 -10 5
-10 10 0 6 5 10 10 10 6 0 10 -4 10 -10z m5365 -9 c3 -5 1 -12 -5 -16 -5 -3
-10 1 -10 9 0 18 6 21 15 7z m-75 -122 c0 -11 -4 -18 -10 -14 -5 3 -7 12 -3
20 7 21 13 19 13 -6z m110 -9 c0 -20 -5 -30 -15 -30 -8 0 -15 -8 -15 -17 0 -9
-7 -25 -17 -35 -18 -20 -36 -50 -52 -85 -6 -13 -15 -23 -21 -23 -5 0 -10 -9
-10 -20 0 -11 -7 -23 -15 -26 -8 -3 -17 -15 -21 -27 -4 -11 -21 -41 -38 -66
-18 -25 -35 -54 -39 -63 -3 -10 -11 -18 -17 -18 -5 0 -10 -7 -10 -15 0 -8 -9
-23 -20 -32 -11 -10 -20 -25 -20 -35 0 -10 -6 -18 -14 -18 -18 0 -9 39 10 47
8 3 14 14 14 24 0 11 6 22 14 25 8 3 17 17 21 32 4 15 10 29 13 32 16 12 52
70 52 84 0 8 6 19 13 23 7 4 18 19 25 33 32 62 44 80 53 80 5 0 9 7 9 15 0 8
9 20 20 27 11 7 20 23 20 35 0 14 6 23 15 23 8 0 15 8 15 18 0 15 17 42 27 42
2 0 3 -13 3 -30z m-5454 -124 c21 -22 17 -38 -8 -34 -15 2 -24 11 -26 26 -4
25 12 29 34 8z m64 -76 c0 -5 -4 -10 -9 -10 -6 0 -13 5 -16 10 -3 6 1 10 9 10
9 0 16 -4 16 -10z m80 -53 c0 -7 -14 -21 -31 -31 -26 -15 -33 -16 -40 -5 -5 8
-4 15 1 17 6 2 10 9 10 15 0 7 14 13 30 14 18 1 30 -3 30 -10z m4970 -275 c0
-13 -12 -22 -22 -16 -10 6 -1 24 13 24 5 0 9 -4 9 -8z m-4691 -198 c-14 -18
-24 -11 -15 11 3 9 11 13 16 10 8 -5 7 -11 -1 -21z m311 -59 c0 -9 -6 -12 -15
-9 -8 4 -12 10 -9 15 8 14 24 10 24 -6z m4210 -19 c0 -16 -18 -31 -27 -22 -8
8 5 36 17 36 5 0 10 -6 10 -14z m-5717 -143 c-3 -9 -9 -11 -15 -5 -5 5 -6 17
-2 26 5 13 9 14 14 5 5 -7 6 -19 3 -26z m-37 -40 c-10 -10 -19 5 -10 18 6 11
8 11 12 0 2 -7 1 -15 -2 -18z m337 -20 c-7 -2 -19 -2 -25 0 -7 3 -2 5 12 5 14
0 19 -2 13 -5z m2804 -765 c-3 -8 -6 -5 -6 6 -1 11 2 17 5 13 3 -3 4 -12 1
-19z m-17 -53 c0 -2 -11 -24 -25 -49 -14 -25 -25 -61 -25 -81 0 -21 -4 -34
-10 -30 -5 3 -7 0 -4 -8 3 -8 -8 -27 -25 -43 -17 -16 -31 -34 -31 -40 0 -6 -7
-18 -16 -25 -9 -7 -50 -58 -91 -114 -86 -116 -112 -149 -135 -175 -9 -10 -18
-26 -20 -36 -1 -9 -9 -19 -16 -22 -15 -5 -11 37 6 47 6 3 16 18 22 31 6 14 16
34 23 45 21 34 51 80 57 85 3 3 16 28 30 55 13 28 38 70 55 95 48 73 54 84 65
108 5 12 17 25 25 28 8 4 15 11 15 18 0 6 5 18 10 26 9 13 11 13 20 0 8 -12
10 -12 8 5 -3 39 2 55 17 55 8 0 15 7 15 15 0 8 7 15 15 15 8 0 15 -2 15 -5z
m71 -542 c36 -21 37 -31 4 -39 -31 -8 -77 19 -69 41 8 20 29 19 65 -2z m-500
-136 c-8 -8 -11 -5 -11 9 0 27 14 41 18 19 2 -9 -1 -22 -7 -28z m559 -7 c0
-23 -5 -30 -19 -30 -23 0 -40 22 -23 28 7 2 12 10 12 18 0 8 7 14 15 14 10 0
15 -10 15 -30z m-605 -81 c-36 -63 -60 -92 -74 -88 -13 5 11 53 45 92 11 12
24 31 27 42 5 12 11 15 18 8 6 -6 1 -24 -16 -54z m655 -35 c0 -8 -5 -12 -10
-9 -6 4 -8 11 -5 16 9 14 15 11 15 -7z m-768 -136 c-6 -6 -15 -7 -22 -3 -8 5
-6 13 7 27 16 18 18 19 21 3 2 -9 -1 -22 -6 -27z m848 12 c0 -5 -9 -10 -19
-10 -11 0 -23 5 -26 10 -4 6 5 10 19 10 14 0 26 -4 26 -10z m-894 -86 c-14
-13 -16 -13 -16 -1 0 9 3 23 6 32 6 16 8 16 16 1 6 -11 4 -21 -6 -32z m1749
-223 c3 -5 1 -12 -5 -16 -5 -3 -10 1 -10 9 0 18 6 21 15 7z m-35 -66 c0 -8 -4
-15 -9 -15 -5 0 -23 -26 -39 -57 -16 -32 -34 -57 -40 -55 -7 1 -12 -10 -12
-28 0 -16 -4 -30 -9 -30 -5 0 -14 -12 -20 -27 -11 -30 -17 -39 -68 -115 -18
-26 -33 -52 -33 -57 0 -5 -7 -14 -15 -21 -8 -7 -15 -20 -15 -30 0 -9 -9 -25
-20 -35 -11 -10 -20 -22 -20 -27 0 -5 -20 -40 -45 -78 -25 -39 -48 -77 -52
-87 -4 -9 -21 -39 -40 -67 -18 -28 -33 -56 -33 -63 0 -7 -6 -16 -12 -20 -15
-10 -33 -36 -53 -80 -8 -17 -19 -34 -25 -38 -5 -3 -10 -14 -10 -25 0 -10 -7
-20 -15 -24 -8 -3 -15 -12 -15 -19 0 -8 -9 -22 -20 -32 -11 -10 -20 -26 -20
-37 0 -10 -5 -18 -10 -18 -6 0 -14 -8 -17 -17 -7 -18 -43 -74 -54 -83 -8 -6
-36 -59 -45 -82 -3 -10 -10 -18 -15 -18 -5 0 -16 -15 -24 -32 -8 -18 -24 -46
-35 -63 -11 -16 -25 -41 -32 -55 -7 -14 -18 -31 -25 -38 -7 -7 -13 -17 -13
-22 0 -5 -6 -15 -12 -22 -16 -18 -35 -46 -50 -78 -7 -14 -18 -31 -25 -38 -7
-7 -13 -19 -13 -26 0 -8 -7 -20 -16 -27 -9 -7 -20 -22 -25 -34 -14 -32 -84
-133 -124 -177 -8 -10 -15 -25 -15 -33 0 -9 -7 -18 -15 -21 -8 -4 -15 -12 -15
-20 0 -7 -9 -18 -20 -24 -11 -6 -23 -22 -26 -36 -5 -18 -10 -22 -17 -15 -8 8
-4 20 11 41 12 16 22 35 22 41 0 7 6 20 14 28 8 9 47 76 86 150 39 73 78 140
86 148 8 8 14 20 14 27 0 8 7 19 15 26 8 7 15 21 15 30 0 10 11 31 24 47 13
15 26 38 30 51 4 12 16 26 26 32 10 5 21 22 25 37 3 15 10 30 14 33 19 12 211
356 211 376 0 8 8 22 18 32 20 22 59 86 73 125 6 15 15 27 20 27 5 0 9 6 9 14
0 8 11 23 23 33 29 22 50 60 42 73 -3 6 -1 10 5 10 9 0 55 66 55 80 1 12 17
30 24 25 4 -2 14 14 21 35 7 22 19 45 27 51 7 6 13 17 13 23 0 6 18 30 40 54
22 24 40 48 40 55 0 7 9 18 19 24 11 7 24 28 31 48 8 24 19 37 36 41 14 4 23
8 20 11 -11 11 18 65 45 84 16 11 29 27 29 35 0 8 18 33 40 55 22 22 40 45 40
50 0 5 5 9 10 9 6 0 10 -7 10 -15z m-640 -136 c0 -5 -4 -9 -10 -9 -5 0 -10 7
-10 16 0 8 5 12 10 9 6 -3 10 -10 10 -16z m-50 -9 c0 -5 -4 -10 -10 -10 -5 0
-10 5 -10 10 0 6 5 10 10 10 6 0 10 -4 10 -10z m210 -351 c0 -11 -4 -17 -10
-14 -5 3 -10 13 -10 21 0 8 5 14 10 14 6 0 10 -9 10 -21z m-100 -49 c0 -5 -4
-10 -10 -10 -5 0 -10 5 -10 10 0 6 5 10 10 10 6 0 10 -4 10 -10z m50 -110 c0
-5 -7 -10 -15 -10 -8 0 -15 5 -15 10 0 6 7 10 15 10 8 0 15 -4 15 -10z m3817
-912 c-3 -7 -5 -2 -5 12 0 14 2 19 5 13 2 -7 2 -19 0 -25z m-27 -62 c0 -14
-24 -66 -30 -66 -4 0 -10 -9 -13 -20 -3 -11 -10 -20 -17 -20 -13 0 -4 37 15
60 6 8 15 23 18 33 5 14 27 25 27 13z m-4550 -444 c0 -22 -17 -48 -25 -40 -10
10 5 69 16 62 5 -3 9 -13 9 -22z m-52 -96 c-7 -6 -18 -22 -25 -36 -10 -23 -11
-24 -19 -6 -5 13 -2 23 9 31 9 6 22 25 28 41 13 29 13 29 17 5 2 -14 -2 -30
-10 -35z m-62 -93 c-11 -11 -19 6 -11 24 8 17 8 17 12 0 3 -10 2 -21 -1 -24z
m4974 -887 c0 -3 -4 -8 -10 -11 -5 -3 -10 -1 -10 4 0 6 5 11 10 11 6 0 10 -2
10 -4z m-74 -87 c5 -9 -82 -99 -97 -99 -18 0 -9 22 11 27 11 3 20 14 20 24 0
11 7 19 16 19 12 0 15 7 12 24 -4 19 -1 22 14 18 10 -2 21 -8 24 -13z m-9351
-48 c-3 -12 -10 -21 -15 -21 -4 0 -3 11 3 24 14 29 22 27 12 -3z m1485 -1 c0
-5 -2 -10 -4 -10 -3 0 -8 5 -11 10 -3 6 -1 10 4 10 6 0 11 -4 11 -10z m5502
-112 c-6 -6 -16 -7 -22 -3 -9 6 -9 9 1 16 17 10 34 0 21 -13z m546 -225 c-11
-3 -18 -14 -18 -30 0 -25 0 -26 -20 -8 -11 10 -20 22 -20 26 0 9 26 17 55 17
16 0 17 -1 3 -5z m272 -43 c0 -5 -4 -10 -10 -10 -5 0 -10 5 -10 10 0 6 5 10
10 10 6 0 10 -4 10 -10z m-102 -44 c-4 -26 -37 -28 -52 -3 -9 15 -7 21 8 32
24 18 48 2 44 -29z m162 14 c12 -8 11 -10 -7 -10 -13 0 -23 5 -23 10 0 13 11
13 30 0z m133 -97 c-7 -17 -18 -16 -33 2 -11 13 -9 15 13 13 16 -1 23 -7 20
-15z m-236 -25 c-3 -7 -5 -2 -5 12 0 14 2 19 5 13 2 -7 2 -19 0 -25z m-582
-50 c0 -3 3 -10 8 -14 11 -11 9 -34 -4 -34 -6 0 -22 -9 -35 -19 -14 -11 -33
-17 -45 -14 l-20 6 21 19 c28 26 25 38 -8 38 -37 0 -43 7 -29 34 7 11 13 23
14 25 1 2 17 6 35 10 29 6 35 4 48 -18 8 -14 14 -29 15 -33z m739 7 c3 -9 0
-15 -9 -15 -16 0 -27 14 -18 24 10 10 21 7 27 -9z m141 5 c3 -5 -1 -10 -10
-10 -9 0 -13 5 -10 10 3 6 8 10 10 10 2 0 7 -4 10 -10z m-7570 -39 c3 -5 1
-12 -5 -16 -5 -3 -10 1 -10 9 0 18 6 21 15 7z m7511 -36 c-7 -18 -60 -21 -54
-2 6 17 52 39 56 26 2 -5 1 -16 -2 -24z m134 5 c0 -11 -7 -20 -15 -20 -8 0
-15 2 -15 4 0 2 -3 11 -6 20 -4 12 0 16 15 16 14 0 21 -6 21 -20z m45 -50 c-3
-5 -10 -10 -16 -10 -5 0 -9 5 -9 10 0 6 7 10 16 10 8 0 12 -4 9 -10z m235 -4
c0 -3 -4 -8 -10 -11 -5 -3 -10 -1 -10 4 0 6 5 11 10 11 6 0 10 -2 10 -4z
m-100 -123 c0 -34 -1 -36 -16 -21 -10 10 -14 23 -9 37 10 34 25 24 25 -16z
m167 -5 c-3 -8 -6 -5 -6 6 -1 11 2 17 5 13 3 -3 4 -12 1 -19z m-57 -68 c0 -4
-7 -13 -15 -20 -13 -11 -15 -8 -15 13 0 19 4 25 15 21 8 -4 15 -10 15 -14z
m-1199 -3 c9 -7 14 -18 12 -24 -6 -18 -43 -16 -43 2 0 8 -7 15 -16 15 -8 0
-12 5 -9 10 8 14 36 12 56 -3z m37 -99 c-6 -18 -28 -21 -28 -4 0 9 7 16 16 16
9 0 14 -5 12 -12z m1223 -41 c-1 -12 -15 -9 -19 4 -3 6 1 10 8 8 6 -3 11 -8
11 -12z m-1213 -84 c3 -28 1 -31 -18 -26 -25 7 -35 26 -26 49 10 27 41 12 44
-23z m-6802 -589 c-9 -8 -16 -29 -16 -45 0 -16 -5 -29 -10 -29 -12 0 -2 72 11
80 4 3 11 19 16 35 l8 30 3 -28 c2 -15 -3 -34 -12 -43z m-10 -201 c14 -10 11
-12 -15 -11 -48 2 -63 45 -38 112 11 29 11 28 24 -30 7 -32 21 -64 29 -71z
m6112 38 c10 -6 7 -10 -13 -15 -28 -7 -49 0 -40 15 8 11 36 12 53 0z"/>
<path d="M4226 7120 c3 -74 8 -137 10 -139 8 -9 2 235 -7 254 -6 13 -7 -29 -3
-115z"/>
<path d="M4260 6945 c-4 -44 2 -140 8 -147 4 -4 6 28 4 70 -3 77 -9 115 -12
77z"/>
<path d="M4292 6735 c0 -22 4 -51 8 -65 7 -21 8 -17 8 20 0 25 -3 54 -8 65 -7
15 -9 11 -8 -20z"/>
<path d="M4333 6575 c0 -33 2 -45 4 -27 2 18 2 45 0 60 -2 15 -4 0 -4 -33z"/>
<path d="M4361 6465 c0 -22 4 -47 9 -55 8 -12 9 -10 9 10 -1 14 -5 39 -9 55
-7 29 -8 29 -9 -10z"/>
<path d="M4403 6335 c0 -22 2 -30 4 -17 2 12 2 30 0 40 -3 9 -5 -1 -4 -23z"/>
<path d="M4431 6248 c-1 -20 4 -40 9 -43 12 -7 12 19 0 55 -7 22 -8 21 -9 -12z"/>
<path d="M4461 6173 c1 -10 5 -29 9 -43 7 -22 8 -21 9 12 1 20 -3 40 -9 43 -5
3 -10 -2 -9 -12z"/>
<path d="M4497 6068 c6 -36 10 -44 18 -36 8 8 -6 68 -16 68 -5 0 -6 -15 -2
-32z"/>
<path d="M4531 6003 c-1 -17 4 -35 9 -38 12 -7 12 22 0 50 -7 17 -9 15 -9 -12z"/>
<path d="M4567 5918 c8 -46 13 -48 13 -5 0 21 -4 37 -10 37 -5 0 -7 -14 -3
-32z"/>
<path d="M4597 5860 c3 -11 10 -23 16 -27 7 -4 8 0 4 11 -4 10 -7 22 -7 27 0
5 -4 9 -9 9 -5 0 -7 -9 -4 -20z"/>
<path d="M4630 5798 c0 -7 5 -20 10 -28 8 -12 10 -9 10 13 0 15 -4 27 -10 27
-5 0 -10 -6 -10 -12z"/>
<path d="M4670 5723 c0 -13 5 -23 10 -23 13 0 13 11 0 30 -8 12 -10 11 -10 -7z"/>
<path d="M4711 5664 c0 -11 3 -14 6 -6 3 7 2 16 -1 19 -3 4 -6 -2 -5 -13z"/>
<path d="M4737 5610 c3 -11 9 -20 13 -20 5 0 6 9 3 20 -3 11 -9 20 -13 20 -5
0 -6 -9 -3 -20z"/>
<path d="M4770 5556 c0 -8 5 -18 10 -21 6 -3 10 1 10 9 0 8 -4 18 -10 21 -5 3
-10 -1 -10 -9z"/>
<path d="M4808 5503 c5 -21 7 -23 10 -9 2 10 0 22 -6 28 -6 6 -7 0 -4 -19z"/>
<path d="M4841 5454 c0 -11 3 -14 6 -6 3 7 2 16 -1 19 -3 4 -6 -2 -5 -13z"/>
<path d="M4877 5410 c3 -11 9 -20 15 -20 5 0 4 9 -2 20 -6 11 -12 20 -14 20
-2 0 -2 -9 1 -20z"/>
<path d="M4910 5365 c0 -8 4 -15 10 -15 5 0 7 7 4 15 -4 8 -8 15 -10 15 -2 0
-4 -7 -4 -15z"/>
<path d="M4936 5322 c6 -4 14 -14 17 -22 4 -10 6 -8 6 8 1 15 -5 22 -16 22
-11 0 -14 -3 -7 -8z"/>
<path d="M4974 5287 c3 -10 6 -23 6 -28 0 -5 7 -9 15 -9 8 0 15 -7 15 -15 0
-8 5 -15 10 -15 17 0 11 13 -22 50 -17 19 -28 27 -24 17z"/>
<path d="M5040 5201 c0 -5 5 -13 10 -16 6 -3 10 -2 10 4 0 5 -4 13 -10 16 -5
3 -10 2 -10 -4z"/>
<path d="M5080 5156 c0 -9 5 -16 10 -16 6 0 10 4 10 9 0 6 -4 13 -10 16 -5 3
-10 -1 -10 -9z"/>
<path d="M5110 5120 c0 -5 5 -10 10 -10 6 0 10 5 10 10 0 6 -4 10 -10 10 -5 0
-10 -4 -10 -10z"/>
<path d="M5145 5091 c-3 -5 -1 -12 5 -16 5 -3 10 1 10 9 0 18 -6 21 -15 7z"/>
<path d="M5175 5050 c3 -5 10 -10 16 -10 5 0 9 5 9 10 0 6 -7 10 -16 10 -8 0
-12 -4 -9 -10z"/>
<path d="M5215 5010 c3 -5 8 -10 11 -10 2 0 4 5 4 10 0 6 -5 10 -11 10 -5 0
-7 -4 -4 -10z"/>
<path d="M5245 4980 c3 -5 8 -10 11 -10 2 0 4 5 4 10 0 6 -5 10 -11 10 -5 0
-7 -4 -4 -10z"/>
<path d="M5275 4950 c3 -5 10 -10 16 -10 5 0 9 5 9 10 0 6 -7 10 -16 10 -8 0
-12 -4 -9 -10z"/>
<path d="M5798 9763 c7 -3 16 -2 19 1 4 3 -2 6 -13 5 -11 0 -14 -3 -6 -6z"/>
<path d="M5990 9640 c-8 -5 -11 -12 -7 -16 4 -4 13 -2 19 4 15 15 7 24 -12 12z"/>
<path d="M5830 9630 c0 -5 7 -10 15 -10 8 0 15 5 15 10 0 6 -7 10 -15 10 -8 0
-15 -4 -15 -10z"/>
<path d="M6008 9444 c6 -3 12 -12 12 -20 0 -16 16 -19 25 -3 9 13 6 15 -25 23
-14 3 -19 3 -12 0z"/>
<path d="M6115 9290 c-3 -5 1 -10 9 -10 9 0 16 5 16 10 0 6 -4 10 -9 10 -6 0
-13 -4 -16 -10z"/>
<path d="M7114 14810 c2 -14 5 -31 5 -37 1 -7 12 -13 26 -13 20 0 24 5 22 23
-1 12 -9 25 -17 29 -10 4 -6 7 13 7 15 1 27 5 27 11 0 5 -18 9 -40 7 -37 -2
-40 -4 -36 -27z"/>
<path d="M4835 14429 c-52 -5 -135 -36 -135 -50 0 -4 -13 -10 -29 -14 -16 -3
-35 -13 -42 -21 -6 -8 -19 -14 -28 -14 -9 0 -25 -6 -36 -14 -11 -7 -47 -17
-79 -21 -33 -4 -92 -22 -132 -41 -40 -19 -78 -34 -84 -34 -5 0 -10 -4 -10 -9
0 -5 -12 -14 -27 -20 -30 -11 -39 -17 -115 -68 -26 -18 -51 -33 -55 -33 -5 0
-28 -18 -52 -40 -25 -22 -48 -40 -52 -40 -3 0 -9 -9 -12 -20 -4 -16 0 -20 18
-20 24 0 200 84 210 100 4 6 15 10 26 10 10 0 19 4 19 9 0 5 12 14 28 20 15 6
45 22 67 36 22 13 47 27 55 30 8 4 22 10 30 15 8 5 40 21 70 36 30 15 57 30
60 33 3 4 46 26 95 50 50 23 97 47 105 52 8 5 22 12 30 15 8 4 34 15 58 26 33
16 55 19 93 15 27 -3 49 -2 49 2 0 12 -64 17 -125 10z"/>
<path d="M4972 14391 c4 -13 18 -16 19 -4 0 4 -5 9 -11 12 -7 2 -11 -2 -8 -8z"/>
<path d="M5002 14359 c2 -7 10 -15 17 -17 8 -3 12 1 9 9 -2 7 -10 15 -17 17
-8 3 -12 -1 -9 -9z"/>
<path d="M5043 14305 c7 -14 17 -25 24 -25 6 0 13 -10 15 -22 2 -13 6 -18 10
-12 7 11 -39 84 -53 84 -4 0 -2 -11 4 -25z"/>
<path d="M5116 14205 c4 -8 8 -15 10 -15 2 0 4 7 4 15 0 8 -4 15 -10 15 -5 0
-7 -7 -4 -15z"/>
<path d="M5147 14170 c3 -11 9 -20 13 -20 5 0 6 9 3 20 -3 11 -9 20 -13 20 -5
0 -6 -9 -3 -20z"/>
<path d="M5185 14121 c-3 -5 -1 -12 5 -16 5 -3 10 1 10 9 0 18 -6 21 -15 7z"/>
<path d="M7214 14089 c-18 -20 -18 -20 11 -13 37 8 39 10 30 23 -9 16 -20 13
-41 -10z"/>
<path d="M5210 14083 c0 -5 5 -15 10 -23 8 -12 10 -11 10 8 0 12 -4 22 -10 22
-5 0 -10 -3 -10 -7z"/>
<path d="M5247 14030 c3 -11 9 -20 14 -20 11 0 11 3 3 24 -9 23 -23 20 -17 -4z"/>
<path d="M5284 13989 c-3 -6 -1 -16 5 -22 8 -8 11 -5 11 11 0 24 -5 28 -16 11z"/>
<path d="M5317 13930 c3 -11 9 -20 13 -20 5 0 6 9 3 20 -3 11 -9 20 -13 20 -5
0 -6 -9 -3 -20z"/>
<path d="M5350 13893 c0 -4 5 -15 10 -23 8 -13 10 -13 10 2 0 9 -4 20 -10 23
-5 3 -10 3 -10 -2z"/>
<path d="M5390 13830 c0 -11 4 -20 9 -20 5 0 7 9 4 20 -3 11 -7 20 -9 20 -2 0
-4 -9 -4 -20z"/>
<path d="M5420 13793 c0 -12 5 -25 10 -28 13 -8 13 15 0 35 -8 12 -10 11 -10
-7z"/>
<path d="M5462 13730 c0 -14 2 -19 5 -12 2 6 2 18 0 25 -3 6 -5 1 -5 -13z"/>
<path d="M3143 13518 c-54 -61 -22 -80 39 -24 20 19 34 37 31 40 -14 13 -51 5
-70 -16z"/>
<path d="M3127 13328 c-24 -13 -21 -41 14 -138 17 -47 38 -103 45 -125 8 -22
19 -49 24 -60 32 -70 50 -120 50 -136 0 -10 4 -20 9 -24 5 -3 15 -22 21 -43
16 -51 53 -145 61 -157 16 -22 21 -112 9 -136 -16 -30 -685 -699 -699 -699 -5
0 -13 5 -16 10 -3 6 -14 10 -23 10 -9 1 -35 9 -57 20 -22 11 -46 19 -53 20 -8
0 -26 6 -40 14 -62 32 -120 56 -135 56 -9 0 -19 4 -22 10 -3 5 -24 14 -45 20
-22 6 -40 15 -40 20 0 6 -10 10 -22 10 -13 0 -36 9 -53 20 -16 11 -39 20 -49
20 -11 0 -27 6 -35 14 -18 15 -91 29 -91 16 0 -4 16 -11 36 -15 20 -3 43 -13
51 -21 8 -8 25 -14 37 -14 13 0 29 -7 36 -15 7 -8 18 -15 24 -15 6 0 28 -9 49
-20 20 -11 48 -20 61 -20 13 0 26 -7 30 -15 3 -8 11 -15 18 -15 7 0 30 -9 51
-20 20 -11 46 -20 57 -20 11 0 20 -4 20 -10 0 -5 12 -13 28 -16 15 -4 38 -13
52 -20 23 -11 73 -34 155 -69 101 -43 138 -55 171 -55 34 0 45 8 113 79 42 43
107 114 145 157 83 94 430 440 574 574 135 125 135 124 115 191 -9 30 -22 63
-29 74 -8 11 -14 29 -14 41 0 12 -7 27 -15 34 -8 7 -15 20 -15 29 0 9 -6 25
-14 36 -7 11 -17 31 -21 45 -16 57 -85 186 -106 199 -19 11 -23 11 -31 -3 -5
-9 -19 -16 -32 -16 -30 0 -86 20 -87 31 -3 20 -5 25 -22 50 -10 15 -31 32 -47
39 -17 7 -30 16 -30 21 0 5 -8 9 -17 9 -9 0 -24 6 -32 14 -19 17 -141 27 -164
14z"/>
<path d="M13730 11826 c0 -9 5 -16 10 -16 6 0 10 4 10 9 0 6 -4 13 -10 16 -5
3 -10 -1 -10 -9z"/>
<path d="M13766 11768 c8 -27 12 -33 19 -27 7 8 -7 49 -17 49 -5 0 -6 -10 -2
-22z"/>
<path d="M13800 11711 c0 -12 5 -21 10 -21 6 0 10 6 10 14 0 8 -4 18 -10 21
-5 3 -10 -3 -10 -14z"/>
<path d="M13830 11671 c0 -11 5 -23 10 -26 6 -3 10 3 10 14 0 11 -4 23 -10 26
-5 3 -10 -3 -10 -14z"/>
<path d="M13864 11604 c3 -9 6 -18 6 -20 0 -2 4 -4 9 -4 5 0 7 9 4 20 -3 11
-10 20 -15 20 -6 0 -7 -7 -4 -16z"/>
<path d="M13900 11553 c0 -5 5 -15 10 -23 8 -12 10 -11 10 8 0 12 -4 22 -10
22 -5 0 -10 -3 -10 -7z"/>
<path d="M13941 11484 c0 -11 3 -14 6 -6 3 7 2 16 -1 19 -3 4 -6 -2 -5 -13z"/>
<path d="M14041 11304 c0 -11 3 -14 6 -6 3 7 2 16 -1 19 -3 4 -6 -2 -5 -13z"/>
<path d="M13907 11273 c-11 -10 -8 -51 3 -58 6 -3 10 1 10 10 0 9 5 13 10 10
6 -4 10 5 10 19 0 24 -18 35 -33 19z"/>
<path d="M13440 10330 c0 -5 7 -10 16 -10 8 0 12 5 9 10 -3 6 -10 10 -16 10
-5 0 -9 -4 -9 -10z"/>
<path d="M13457 9985 c-4 -8 -2 -17 3 -20 6 -4 10 3 10 14 0 25 -6 27 -13 6z"/>
<path d="M13840 9974 c0 -14 3 -14 15 -4 8 7 15 14 15 16 0 2 -7 4 -15 4 -8 0
-15 -7 -15 -16z"/>
<path d="M13778 9935 c-12 -14 -27 -25 -34 -25 -6 0 -14 -7 -18 -15 -3 -8 -12
-15 -21 -15 -9 0 -15 -9 -15 -22 1 -21 2 -22 14 -5 7 9 18 17 25 17 6 0 11 4
11 9 0 5 20 22 45 38 46 29 56 43 30 43 -8 0 -25 -11 -37 -25z"/>
<path d="M13462 9865 c0 -16 2 -22 5 -12 2 9 2 23 0 30 -3 6 -5 -1 -5 -18z"/>
<path d="M13702 9625 c0 -16 2 -22 5 -12 2 9 2 23 0 30 -3 6 -5 -1 -5 -18z"/>
<path d="M13732 9520 c0 -14 2 -19 5 -12 2 6 2 18 0 25 -3 6 -5 1 -5 -13z"/>
<path d="M13600 9490 c0 -5 5 -10 11 -10 5 0 7 5 4 10 -3 6 -8 10 -11 10 -2 0
-4 -4 -4 -10z"/>
<path d="M13773 9400 c0 -25 2 -35 4 -22 2 12 2 32 0 45 -2 12 -4 2 -4 -23z"/>
<path d="M13801 9288 c0 -27 4 -48 9 -48 11 0 11 21 0 65 -7 27 -8 25 -9 -17z"/>
<path d="M13829 9213 c-3 -23 3 -85 11 -110 6 -22 8 -14 9 39 1 37 -3 70 -9
73 -5 3 -10 3 -11 -2z"/>
<path d="M13863 9013 c4 -37 11 -69 16 -72 5 -4 13 -35 17 -71 3 -36 13 -77
20 -92 8 -15 14 -42 15 -60 1 -18 5 -44 9 -58 6 -18 8 -4 9 48 1 45 -3 71 -9
67 -11 -7 -17 17 -24 97 -2 32 -12 68 -20 80 -10 14 -16 43 -16 75 0 33 -4 53
-11 53 -9 0 -10 -20 -6 -67z"/>
<path d="M1707 8814 c-4 -4 -7 -15 -7 -25 0 -9 -8 -19 -19 -22 -12 -3 -21 -18
-25 -42 -4 -21 -11 -45 -16 -54 -5 -9 -20 -41 -35 -71 -15 -30 -30 -59 -34
-63 -7 -7 -56 -18 -149 -34 -18 -3 -35 -9 -38 -14 -3 -5 -29 -9 -57 -9 -29 0
-68 -5 -87 -10 -34 -10 -169 -32 -200 -32 -8 0 -42 -6 -75 -13 -33 -7 -100
-14 -150 -14 -49 -1 -92 -6 -95 -10 -3 -4 -31 -11 -64 -15 -75 -8 -112 -34
-127 -88 -16 -61 -5 -604 16 -732 8 -55 17 -101 19 -103 1 -2 17 2 34 8 17 6
43 9 59 7 24 -3 29 -9 36 -48 5 -25 10 -58 11 -75 2 -16 3 -41 4 -54 2 -24 2
-24 16 -5 19 25 39 7 40 -38 1 -44 31 -47 31 -3 0 53 16 113 31 119 22 8 44
-4 44 -25 0 -10 5 -19 10 -19 6 0 16 -11 22 -25 14 -32 22 -31 37 2 l13 28 14
-28 c27 -50 41 -36 69 71 7 23 25 30 26 10 3 -66 46 -180 56 -150 3 7 21 12
44 12 28 0 39 4 39 15 0 8 5 15 11 15 7 0 8 11 4 30 -4 16 -3 39 0 51 7 21 8
20 27 -10 12 -19 26 -30 34 -27 9 3 16 -4 20 -19 5 -19 13 -25 33 -25 18 0 29
-7 36 -22 16 -36 44 -35 51 1 9 43 22 48 35 14 10 -26 12 -27 19 -8 14 32 11
57 -6 70 -14 10 -15 21 -9 61 l8 49 10 -55 c11 -64 10 -62 30 -54 11 4 15 14
11 32 -2 15 -1 47 4 72 10 49 13 43 27 -42 3 -21 17 -50 30 -65 23 -26 26 -27
36 -10 5 9 19 17 29 17 17 0 20 -7 20 -43 0 -30 6 -48 20 -60 11 -9 20 -23 20
-31 0 -8 14 -26 30 -39 17 -14 30 -35 30 -47 0 -20 1 -21 17 -4 25 24 45 65
48 94 5 55 7 65 12 53 2 -8 22 -13 44 -13 l39 0 0 -42 c1 -38 2 -41 14 -25 21
28 31 20 51 -38 18 -55 35 -72 35 -36 0 10 9 29 19 43 11 13 24 40 29 59 l10
34 1 -35 c1 -19 5 -30 9 -24 4 6 14 13 23 16 9 4 22 28 29 55 7 26 14 44 15
38 13 -51 30 -95 35 -95 4 0 11 -21 15 -47 l8 -48 10 45 c5 25 12 47 17 50 4
3 12 15 19 28 15 29 29 28 43 -4 12 -25 12 -25 20 -4 10 26 41 23 46 -5 2 -11
10 -27 17 -35 7 -8 16 -26 18 -40 3 -14 4 -7 3 15 -2 27 3 46 15 59 18 18 18
18 30 -8 12 -26 29 -35 29 -15 0 8 4 8 14 0 22 -19 27 -1 36 132 5 67 13 190
19 272 18 246 27 477 20 530 -4 28 -2 58 3 68 5 9 8 88 7 174 -1 87 -6 149
-10 138 -4 -11 -8 -16 -8 -11 -2 25 -60 -56 -66 -93 -10 -59 -22 -42 -20 29 1
49 -1 60 -13 55 -7 -3 -15 -5 -17 -5 -2 0 -7 -27 -11 -60 -7 -61 -17 -77 -27
-40 -3 11 -1 20 5 20 6 0 7 9 3 23 -4 12 -10 54 -14 92 -7 68 -8 69 -20 40 -7
-16 -13 -45 -14 -63 -1 -19 -10 -43 -22 -56 -16 -17 -20 -32 -17 -69 3 -33 0
-47 -8 -47 -10 0 -11 20 -7 80 3 44 2 80 -2 80 -4 0 -12 19 -18 43 -7 24 -21
54 -32 68 l-20 24 -1 -43 c0 -39 -2 -43 -22 -40 -14 2 -24 12 -28 28 l-6 25
-18 -27 c-32 -49 -56 -28 -56 50 0 25 -4 32 -20 32 -11 0 -20 -6 -20 -13 0 -8
-9 -22 -20 -32 -11 -10 -20 -26 -20 -35 0 -9 -7 -25 -16 -36 -14 -18 -15 -14
-11 44 2 38 9 67 17 72 15 9 6 60 -11 60 -6 0 -16 -13 -22 -30 -8 -21 -18 -30
-33 -30 -12 0 -24 -6 -27 -12 -3 -10 -8 -10 -21 1 -12 11 -17 27 -15 58 2 34
-2 48 -19 66 -19 19 -24 20 -32 7 -8 -12 -14 -10 -38 13 -16 15 -39 27 -54 27
-15 0 -28 5 -30 11 -2 5 -7 7 -11 3z m485 -371 c-4 -34 -6 -35 -18 -18 -20 27
-18 55 4 55 15 0 17 -6 14 -37z m-2 -58 c0 -8 -2 -15 -4 -15 -2 0 -6 7 -10 15
-3 8 -1 15 4 15 6 0 10 -7 10 -15z m-1325 -965 c8 -13 -20 -24 -41 -16 -20 8
-9 26 16 26 10 0 22 -5 25 -10z m-115 -70 c0 -5 -2 -10 -4 -10 -3 0 -8 5 -11
10 -3 6 -1 10 4 10 6 0 11 -4 11 -10z m430 -61 c0 -5 -7 -9 -15 -9 -15 0 -20
12 -9 23 8 8 24 -1 24 -14z"/>
<path d="M2593 8723 c-9 -3 -13 -27 -13 -71 l1 -67 15 35 c18 41 15 109 -3
103z"/>
<path d="M2084 8679 c-7 -12 15 -31 28 -23 4 3 8 12 8 20 0 17 -26 19 -36 3z"/>
<path d="M2410 8678 c0 -7 5 -20 10 -28 8 -12 10 -9 10 13 0 15 -4 27 -10 27
-5 0 -10 -6 -10 -12z"/>
<path d="M605 7430 c3 -5 13 -10 21 -10 8 0 14 5 14 10 0 6 -9 10 -21 10 -11
0 -17 -4 -14 -10z"/>
<path d="M711 7244 c0 -11 3 -14 6 -6 3 7 2 16 -1 19 -3 4 -6 -2 -5 -13z"/>
<path d="M2270 7185 c0 -8 5 -15 10 -15 6 0 10 7 10 15 0 8 -4 15 -10 15 -5 0
-10 -7 -10 -15z"/>
<path d="M10480 2965 c0 -17 2 -18 24 -9 23 9 20 24 -4 24 -11 0 -20 -7 -20
-15z"/>
<path d="M10450 2869 c0 -5 5 -7 10 -4 6 3 10 8 10 11 0 2 -4 4 -10 4 -5 0
-10 -5 -10 -11z"/>
<path d="M10510 2820 l-45 -18 28 -11 c42 -16 65 -13 72 10 11 33 -6 39 -55
19z"/>
<path d="M10706 2811 c-4 -7 -5 -15 -2 -18 9 -9 19 4 14 18 -4 11 -6 11 -12 0z"/>
<path d="M10510 2701 c0 -5 -14 -14 -31 -20 -18 -6 -29 -16 -26 -23 5 -17 59
-11 73 8 6 7 16 14 23 14 17 0 13 17 -5 24 -22 8 -34 7 -34 -3z"/>
<path d="M10540 2624 c0 -11 8 -14 32 -12 46 4 49 28 4 28 -26 0 -36 -4 -36
-16z"/>
<path d="M10893 2620 c-11 -16 -10 -21 7 -30 14 -8 26 -8 40 0 17 9 18 14 7
30 -6 11 -19 20 -27 20 -8 0 -21 -9 -27 -20z"/>
<path d="M11020 2620 c-12 -7 -12 -12 -3 -21 15 -15 26 -7 21 15 -2 11 -7 13
-18 6z"/>
<path d="M10630 2571 c-13 -26 -3 -30 40 -19 33 9 34 11 15 24 -26 19 -42 18
-55 -5z"/>
<path d="M10508 2553 c7 -3 16 -2 19 1 4 3 -2 6 -13 5 -11 0 -14 -3 -6 -6z"/>
<path d="M10540 2420 c0 -5 7 -10 15 -10 8 0 13 -6 11 -12 -1 -7 -1 -10 1 -5
3 4 15 7 29 7 17 0 22 4 18 15 -7 17 -74 21 -74 5z"/>
<path d="M11363 2393 c9 -2 25 -2 35 0 9 3 1 5 -18 5 -19 0 -27 -2 -17 -5z"/>
<path d="M10580 2336 c0 -8 -6 -16 -12 -19 -7 -2 -10 -7 -6 -11 8 -10 48 16
48 31 0 7 -7 13 -15 13 -8 0 -15 -6 -15 -14z"/>
<path d="M11852 2280 c0 -14 2 -19 5 -12 2 6 2 18 0 25 -3 6 -5 1 -5 -13z"/>
<path d="M11827 2253 c-3 -5 -1 -17 4 -28 7 -17 8 -17 8 8 1 27 -4 34 -12 20z"/>
<path d="M10574 2209 c-10 -17 13 -36 27 -22 12 12 4 33 -11 33 -5 0 -12 -5
-16 -11z"/>
<path d="M12020 2185 c-4 -21 2 -60 11 -69 5 -6 9 -1 8 15 0 26 -16 70 -19 54z"/>
<path d="M12052 2076 c2 -22 9 -41 15 -44 9 -2 11 6 7 30 -10 50 -26 60 -22
14z"/>
<path d="M10455 2090 c-3 -5 1 -10 9 -10 9 0 16 5 16 10 0 6 -4 10 -9 10 -6 0
-13 -4 -16 -10z"/>
<path d="M11915 2010 c-3 -5 -1 -10 4 -10 6 0 11 5 11 10 0 6 -2 10 -4 10 -3
0 -8 -4 -11 -10z"/>
<path d="M12084 2007 c3 -10 6 -25 6 -33 0 -8 5 -14 10 -14 15 0 12 24 -6 46
-14 17 -15 17 -10 1z"/>
<path d="M12120 1918 c0 -16 5 -28 10 -28 13 0 13 20 0 40 -8 12 -10 9 -10
-12z"/>
<path d="M10478 1763 c7 -3 16 -2 19 1 4 3 -2 6 -13 5 -11 0 -14 -3 -6 -6z"/>
<path d="M12161 1664 c0 -11 3 -14 6 -6 3 7 2 16 -1 19 -3 4 -6 -2 -5 -13z"/>
<path d="M10417 1569 c-42 -51 -34 -66 14 -26 19 15 25 28 20 40 -6 16 -10 15
-34 -14z"/>
<path d="M10472 1425 c0 -16 2 -22 5 -12 2 9 2 23 0 30 -3 6 -5 -1 -5 -18z"/>
</g>
</svg>
